<?xml version="1.0" standalone="no"?>
<!DOCTYPE svg PUBLIC "-//W3C//DTD SVG 1.1//EN" "http://www.w3.org/Graphics/SVG/1.1/DTD/svg11.dtd" >
<!--
2013-9-30: Created.
-->
<svg>
<metadata>
Created by iconfont
</metadata>
<defs>

<font id="aliicon" horiz-adv-x="1024" >
  <font-face
    font-family="aliicon"
    font-weight="500"
    font-stretch="normal"
    units-per-em="1024"
    ascent="896"
    descent="-128"
  />
    <missing-glyph />
    
    <glyph glyph-name="shuaixuan" unicode="&#58960;" d="M80.842105 896h1024a80.842105 80.842105 0 0 0 0-161.684211h-1024a80.842105 80.842105 0 0 0 0 161.684211z m0-431.157895h1024a80.842105 80.842105 0 0 0 0-161.68421h-1024a80.842105 80.842105 0 0 0 0 161.68421z m0-431.157894h1024a80.842105 80.842105 0 0 0 0-161.684211h-1024a80.842105 80.842105 0 0 0 0 161.684211z"  horiz-adv-x="1185" />

    
    <glyph glyph-name="RectangleCopy" unicode="&#59055;" d="M192 554.666667h638.250667a21.333333 21.333333 0 0 1 0 42.666666H192a21.333333 21.333333 0 0 1 0-42.666666M830.250667 385.749333H192a21.333333 21.333333 0 0 1 0-42.666666h638.250667a21.333333 21.333333 0 0 1 0 42.666666M830.250667 172.416H192a21.333333 21.333333 0 0 1 0-42.666667h638.250667a21.333333 21.333333 0 0 1 0 42.666667"  horiz-adv-x="1024" />

    
    <glyph glyph-name="tuichudenglu" unicode="&#58954;" d="M885.5552-125.883733H204.0832a136.328533 136.328533 0 0 0-136.362667 136.192v136.260266h68.164267v-136.260266c0-37.5808 30.5152-68.130133 68.1984-68.130134h681.472a68.130133 68.130133 0 0 1 68.130133 68.130134V759.773867a68.130133 68.130133 0 0 1-68.130133 68.096H204.0832a68.164267 68.164267 0 0 1-68.1984-68.096v-136.260267H67.720533V759.773867A136.328533 136.328533 0 0 0 204.0832 896h681.472a136.2944 136.2944 0 0 0 136.2944-136.226133v-749.431467a136.2944 136.2944 0 0 0-136.2944-136.226133M535.4496 597.7088a34.065067 34.065067 0 0 0 48.162133 48.162133l235.144534-235.008a33.5872 33.5872 0 0 0 9.6256-25.770666 33.757867 33.757867 0 0 0-9.6256-25.838934l-235.144534-235.008a33.962667 33.962667 0 0 0-48.162133 0 33.962667 33.962667 0 0 0 0 48.162134l178.619733 178.5856H34.0992a34.133333 34.133333 0 0 0 0 68.1984h680.0384l-178.688 178.517333"  horiz-adv-x="1024" />

    
    <glyph glyph-name="tuichudenglu1" unicode="&#59279;" d="M960.512 356.288L815.744 211.456l-48.256 48.256L827.712 320H512v64h325.76l-70.272 70.272 48.256 48.256L960.512 357.76l-0.704-0.768 0.704-0.704zM704 704a64 64 0 0 1-64 64H192a64 64 0 0 1-64-64v-640a64 64 0 0 1 64-64h448a64 64 0 0 1 64 64v64h64v-64a128 128 0 0 0-128-128H192A128 128 0 0 0 64 64V704A128 128 0 0 0 192 832h448a128 128 0 0 0 128-128v-128h-64V704z"  horiz-adv-x="1024" />

    
    <glyph glyph-name="menu" unicode="&#58889;" d="M852.11 276A108 108 0 1 0 960 384a107.94 107.94 0 0 0-107.89-108zM512 276a108 108 0 1 0 107.89 108A107.95 107.95 0 0 0 512 276z m-340.11 0a108 108 0 1 0 107.88 108 107.94 107.94 0 0 0-107.88-108z"  horiz-adv-x="1024" />

    
    <glyph glyph-name="qiye" unicode="&#58925;" d="M991.68-65.184V818.656C983.776 875.392 944.64 894.88 902.848 894.88a25.088 25.088 0 0 1-5.12-0.544L413.376 799.04c-40.448-1.536-84.736-40.512-84.736-81.6l-7.456-141.984-125.568-23.424a76.096 76.096 0 0 1-72.896-76.16l6.592-541.056H29.856c-14.08 0-24.704-17.536-24.704-31.68 0-14.176 10.656-30.816 24.704-30.816h120c14.08 0 42.368 18.368 41.728 43.136V445.664c-3.648 47.872 30.56 54.592 32.224 54.944l448.832 88.704c12.672-1.12 33.472-13.408 31.552-37.28v-636.576c0-14.176 17.632-43.136 31.68-43.136h334.4c14.08 0 23.904 16.64 23.904 30.784 0 14.176-9.824 31.68-23.904 31.68H991.68z m-224.576 0v640.64c0 42.048-37.12 72.32-78.88 72.32-1.728 0-3.808 0.32-5.472 0l-298.464-58.464 4.256 116.864c0 13.76 11.168 33.888 24.832 33.888 1.728 0 489.472 98.56 489.472 98.56 12.672-1.088 25.024-5.824 24.832-37.056v-866.752H767.104zM288.011 349.459l313.007 66.532 13.307-62.602-313.007-66.532-13.307 62.602zM288.011 189.459l313.007 66.532 13.307-62.602-313.007-66.532-13.307 62.602zM288.011 29.459l313.007 66.532 13.307-62.602-313.007-66.532-13.307 62.602z"  horiz-adv-x="1120" />

    
    <glyph glyph-name="getigongshanghuruzhu" unicode="&#58885;" d="M881.9-81.7h-740V306.8h66.3v-322.3h607.4V306.8h66.3v-388.5z m0 0M868.1 273.7c-48.1 0-90.9 22.4-118.7 57.3-27.8-34.9-70.8-57.3-118.7-57.3-48 0-90.9 22.4-118.7 57.3-27.8-34.9-70.8-57.3-118.7-57.3-48 0-90.9 22.4-118.7 57.3-27.8-34.9-70.8-57.3-118.7-57.3C72.2 273.7 4 341.9 4 425.6v7.9L215.4 848.1h592.8L1020 433.6v-7.9c0-83.9-68-152-151.9-152z m-85.6 151.9c0-47.2 38.5-85.6 85.6-85.6 44.7 0 81.6 34.4 85.3 78.2L767.7 781.8H256L70.2 418.3c3.7-43.8 40.6-78.2 85.3-78.2 47.2 0 85.6 38.5 85.6 85.6h66.3c0-47.2 38.5-85.6 85.6-85.6 47.2 0 85.6 38.5 85.6 85.6H545c0-47.2 38.5-85.6 85.6-85.6 47.2 0 85.6 38.5 85.6 85.6h66.3z m0 0"  horiz-adv-x="1024" />

    
    <glyph glyph-name="fuzhi1" unicode="&#59392;" d="M869.864727 849.454545A107.706182 107.706182 0 0 0 977.454545 741.888v-599.412364A107.706182 107.706182 0 0 0 869.864727 34.909091H721.454545v-8.797091A107.682909 107.682909 0 0 0 613.888-81.454545H154.112A107.682909 107.682909 0 0 0 46.545455 26.112V625.524364A107.682909 107.682909 0 0 0 154.112 733.090909H302.545455v8.797091A107.706182 107.706182 0 0 0 410.135273 849.454545h459.729454zM154.135273-11.636364h459.729454A37.841455 37.841455 0 0 1 651.636364 26.112V625.524364c0 20.805818-16.942545 37.748364-37.748364 37.748363H154.135273C133.329455 663.272727 116.363636 646.330182 116.363636 625.524364v-599.412364C116.363636 5.282909 133.329455-11.636364 154.135273-11.636364zM907.636364 142.475636V741.888C907.636364 762.693818 890.670545 779.636364 869.864727 779.636364H410.135273C389.329455 779.636364 372.363636 762.693818 372.363636 741.888V733.090909h241.524364A107.682909 107.682909 0 0 0 721.454545 625.524364V104.727273h148.410182c20.805818 0 37.771636 16.919273 37.771637 37.748363zM523.636364 523.636364a34.909091 34.909091 0 0 0 0-69.818182h-279.272728a34.909091 34.909091 0 0 0 0 69.818182h279.272728z m0-162.909091a34.909091 34.909091 0 0 0 0-69.818182h-279.272728a34.909091 34.909091 0 0 0 0 69.818182h279.272728z m-93.090909-162.909091a34.909091 34.909091 0 0 0 0-69.818182h-186.181819a34.909091 34.909091 0 0 0 0 69.818182h186.181819z"  horiz-adv-x="1024" />

    
    <glyph glyph-name="fuzhi" unicode="&#58904;" d="M703.351467 0.750933a63.8976 63.8976 0 0 0-63.965867-63.829333H127.931733a63.8976 63.8976 0 0 0-63.965866 63.829333V511.726933c0 35.293867 28.672 63.829333 63.965866 63.829334h63.8976v63.8976h-63.8976A127.7952 127.7952 0 0 1 0 511.658667v-510.976a127.658667 127.658667 0 0 1 127.863467-127.726934h511.3856a127.658667 127.658667 0 0 1 127.863466 127.658667v63.8976h-63.8976v-63.829333z m191.761066 894.293334H383.658667a127.7952 127.7952 0 0 1-127.863467-127.7952V256.341333c0-70.519467 57.207467-127.658667 127.863467-127.658666h511.522133c70.656 0 127.7952 57.207467 127.7952 127.658666V767.249067A127.7952 127.7952 0 0 1 895.112533 894.976z m63.965867-638.7712a63.829333 63.829333 0 0 0-63.8976-63.829334H383.658667a63.8976 63.8976 0 0 0-63.8976 63.829334V767.249067c0 35.2256 28.672 63.829333 63.8976 63.829333h511.522133c35.293867 0 63.8976-28.603733 63.8976-63.829333v-510.976z"  horiz-adv-x="1024" />

    
    <glyph glyph-name="refund" unicode="&#58901;" d="M395.815 592.581h94.878c4.962-15.99 11.028-28.121 26.466-54.036l81.644-140.13 81.684 139.579c15.439 25.915 22.055 39.7 26.466 54.587h95.429c-7.168-9.374-29.223-40.802-39.148-56.793l-76.13-121.383h30.878c24.812 0 39.739 1.103 57.935 4.411v-62.897c-18.747 3.308-33.674 4.411-57.935 4.411h-64.551l-18.196-28.672v-15.99h81.644c24.812 0 38.636 1.103 57.935 4.411v-62.897c-18.747 3.308-33.674 4.411-57.935 4.411h-81.644v-37.534c0-31.429 1.103-48.522 4.411-70.617h-81.644c2.757 21.543 4.411 43.599 4.411 70.617v37.534h-83.298c-24.812 0-39.188-1.103-57.935-4.411v62.897c19.298-3.308 32.571-4.411 57.935-4.411h83.298v16.542l-18.196 28.121h-64c-25.364 0-39.188-1.103-57.935-4.411v62.897c18.196-3.308 32.571-4.411 57.935-4.411h30.878l-76.682 121.383c-15.99 24.812-30.326 46.316-38.597 56.793zM591.99-128c-151.828 0-287.823 66.481-381.558 171.441l62.267 48.482c79.202-86.567 192.748-141.154 319.291-141.154 239.262 0 433.231 193.969 433.231 433.231 0 239.262-193.969 433.231-433.231 433.231-195.19 0-359.818-129.26-413.932-306.767l65.378 69.002c13.942 14.69 36.194 15.045 49.703 0.788 13.47-14.257 13.115-37.73-0.827-52.421l-126.188-133.159c-9.728-10.279-23.473-13.076-35.486-9.255-14.415-3.072-29.617 3.269-37.376 17.566l-88.143 162.068c-9.728 17.92-3.978 40.802 12.918 51.161 16.857 10.319 38.4 4.175 48.128-13.706l36.706-67.505c64.473 209.014 258.954 360.999 489.118 360.999 282.782 0 512-229.218 512-512 0-282.782-229.218-512-512-512z"  horiz-adv-x="1105" />

    
    <glyph glyph-name="shou" unicode="&#59087;" d="M319.630222 782.677333C329.585778 836.266667 380.16 882.119111 452.124444 882.119111c37.319111 0 64.483556-19.484444 80.355556-44.856889 11.320889-18.033778 16.924444-38.769778 18.915556-58.595555a127.061333 127.061333 0 0 0 39.082666 6.485333c36.750222 0 64.284444-18.944 80.981334-43.463111 15.815111-23.239111 22.243556-51.598222 22.243555-77.425778v-29.127111c0.085333-96.256 0.284444-192.483556 0.568889-288.711111-0.056889-12.913778 1.080889-25.799111 3.328-38.542222 8.049778 7.367111 15.36 14.791111 23.438222 23.068444l12.430222 12.657778c13.198222 13.198222 28.672 27.790222 47.047112 40.021333 39.736889 26.424889 88.519111 38.542222 153.799111 21.959111 25.998222-6.570667 42.467556-24.632889 51.285333-43.292444 8.334222-17.834667 10.524444-37.489778 9.841778-54.840889-1.336889-32.881778-14.08-73.159111-41.301334-98.645333l-1.649777-1.706667a5018.936889 5018.936889 0 0 0-107.576889-104.533333 2560.369778 2560.369778 0 0 0-90.965334-82.147556c-27.420444-23.352889-55.068444-45.226667-76.487111-57.287111-72.874667-49.265778-160.796444-75.946667-250.993777-76.572444a43.633778 43.633778 0 0 0-44.259556 43.008 43.605333 43.605333 0 0 0 43.690667 43.548444c73.699556 0.512 144.924444 22.528 203.178666 62.293333a44.942222 44.942222 0 0 0 3.726223 2.275556c12.743111 6.940444 34.986667 23.836444 63.658666 48.184889a2475.633778 2475.633778 0 0 1 87.694222 79.274666 4810.382222 4810.382222 0 0 1 105.528889 102.570667l1.649778 1.706667 0.540445 0.512 1.564444 1.507555c3.982222 4.266667 6.997333 9.244444 8.874667 14.705778a78.506667 78.506667 0 0 1 5.290666 24.746667 45.909333 45.909333 0 0 1-0.938666 12.231111c-37.546667 8.305778-59.107556 0.597333-76.970667-11.264-10.837333-7.224889-21.333333-16.782222-33.479111-29.013333-3.100444-3.015111-6.371556-6.371556-9.813333-9.955556-9.244444-9.386667-19.740444-20.110222-30.236445-29.639111l-0.085333-0.113778c-18.033778-16.156444-40.448-30.72-66.531556-31.288889-30.492444-0.654222-50.688 17.436444-61.525333 34.531556-10.069333 15.928889-15.047111 34.759111-17.777778 50.545778a302.108444 302.108444 0 0 0-3.953778 49.152c-0.341333 96.312889-0.512 192.654222-0.512 288.995555V664.263111c0 12.942222-3.413333 23.466667-7.395555 29.297778a13.283556 13.283556 0 0 1-4.096 4.209778 7.111111 7.111111 0 0 1-3.811556 0.824889 43.605333 43.605333 0 0 1-26.680889-10.24c-7.395556-5.859556-11.633778-14.705778-11.52-24.064V438.044444c0-23.893333-19.683556-43.292444-43.975111-43.292444a43.633778 43.633778 0 0 0-43.946666 43.292444V761.230222c0 14.279111-3.214222 25.031111-6.741334 30.634667a9.728 9.728 0 0 1-2.787555 3.242667 1.763556 1.763556 0 0 1-0.455111 0.227555 8.647111 8.647111 0 0 1-2.190223 0.199111c-36.494222 0-46.734222-23.04-46.364444-32.881778v-1.621333l-0.284445-75.690667c0.056889-1.251556 0.056889-2.503111 0-3.754666l-0.967111-246.442667a43.633778 43.633778 0 0 0-44.145777-43.093333 43.633778 43.633778 0 0 0-43.776 43.434666l0.938666 243.712c-2.076444 7.964444-4.977778 12.430222-7.310222 14.705778-1.706667 1.649778-5.461333 4.693333-16.213333 4.693334a38.172444 38.172444 0 0 1-25.031111-8.817778c-5.262222-4.664889-10.069333-12.231111-10.069334-25.514667v-288.369778c0-23.893333-19.655111-43.292444-43.946666-43.292444a43.633778 43.633778 0 0 0-43.946667 43.292444v164.977778a30.179556 30.179556 0 0 1-4.352 5.603556 11.178667 11.178667 0 0 1-4.892445 3.128889c-0.967111 0.256-4.408889 1.024-11.946666-1.422223-16.725333-5.518222-24.661333-14.592-29.070222-26.424889-5.176889-13.852444-6.257778-34.190222-1.024-59.733333 39.879111-195.640889 61.297778-292.807111 78.506666-340.650667 15.189333-42.211556 44.999111-79.672889 85.902222-106.552888 20.195556-13.283556 25.656889-40.192 12.174223-60.074667-13.482667-19.882667-40.789333-25.230222-60.984889-11.946667-55.836444 36.721778-98.133333 88.974222-119.978667 149.703111-19.825778 55.153778-42.666667 160.142222-81.777778 352.483556-7.054222 34.531556-8.135111 72.419556 4.636445 106.552889 13.454222 36.124444 41.301333 64.853333 83.854222 78.791111a113.493333 113.493333 0 0 0 48.924444 5.461333V664.291556c0 78.819556 63.886222 120.860444 123.022223 120.860444 8.903111 0 17.436444-0.853333 25.6-2.474667z"  horiz-adv-x="1024" />

    
    <glyph glyph-name="fenlei1" unicode="&#59033;" d="M358.191515 423.598468H114.41843A114.557372 114.557372 0 0 0 0 537.808485V781.58157A114.557372 114.557372 0 0 0 114.41843 896h243.773085A114.557372 114.557372 0 0 0 472.401532 781.58157v-243.773085A114.557372 114.557372 0 0 0 358.191515 423.598468zM114.41843 819.582105A38.139477 38.139477 0 0 1 76.417895 781.58157v-243.773085a38.139477 38.139477 0 0 1 38.139477-38.139476h243.634143a38.139477 38.139477 0 0 1 38.139476 38.139476V781.58157A38.139477 38.139477 0 0 1 358.191515 819.582105zM909.581362 423.598468H665.808277a114.557372 114.557372 0 0 0-114.41843 114.210017V781.58157A114.557372 114.557372 0 0 0 665.808277 896h243.773085a114.557372 114.557372 0 0 0 114.41843-114.41843v-243.773085A114.557372 114.557372 0 0 0 909.581362 423.598468zM665.808277 819.582105a38.139477 38.139477 0 0 1-38.139477-38.139477v-243.634143a38.139477 38.139477 0 0 1 38.139477-38.139476h243.773085a38.139477 38.139477 0 0 1 38.139476 38.139476V781.58157a38.139477 38.139477 0 0 1-38.139476 38.000535zM358.191515-127.999792H114.41843A114.557372 114.557372 0 0 0 0-13.581362V230.191723a114.557372 114.557372 0 0 0 114.41843 114.41843h243.773085A114.557372 114.557372 0 0 0 472.401532 230.191723v-243.773085a114.557372 114.557372 0 0 0-114.210017-114.41843zM114.41843 268.3312A38.139477 38.139477 0 0 1 76.417895 230.191723v-243.773085a38.139477 38.139477 0 0 1 38.139477-38.139476h243.634143a38.139477 38.139477 0 0 1 38.139476 38.139476V230.191723a38.139477 38.139477 0 0 1-38.139476 38.139477zM787.729555-127.999792a236.200766 236.200766 0 0 0-69.470814 10.351152 35.430115 35.430115 0 0 0 20.841244 67.734043 165.271065 165.271065 0 1 1-109.416531 108.999706 35.430115 35.430115 0 0 0-67.664572-20.841244 236.200766 236.200766 0 1 0 225.710673-166.035244z"  horiz-adv-x="1024" />

    
    <glyph glyph-name="fenlei" unicode="&#58928;" d="M369.950621 402.941836H105.848204c-58.356241 0-105.848204 47.481497-105.848204 105.848204V790.151796C0 848.518503 47.48673 896 105.848204 896h264.10765c58.335308 0 105.806338-47.481497 105.806339-105.848204v-281.366989c-0.005233-58.366707-47.476264-105.842971-105.811572-105.842971zM94.512932 848.131241c-25.323814 0-45.901048-20.592934-45.901048-45.906282v-305.508082c0-25.308114 20.582468-45.906281 45.901048-45.906282H381.28066c25.281948 0 45.859182 20.598167 45.859182 45.906282V802.224959c0 25.313347-20.582468 45.906281-45.859182 45.906282H94.512932zM790.381406-127.947667c-130.826622 0-237.276653 106.439564-237.276654 237.27142s106.450031 237.276653 237.276654 237.276653c130.821389 0 237.266187-106.444798 237.266186-237.276653s-106.444798-237.27142-237.266186-237.27142z m0 428.531893c-105.450476 0-191.260473-85.794298-191.260473-191.260473 0-105.450476 85.804764-191.260473 191.260473-191.260473 105.440009 0 191.260473 85.804764 191.260472 191.260473 0 105.466175-85.815231 191.260473-191.260472 191.260473zM922.453547 402.936603h-264.10765c-58.351008 0-105.848204 47.481497-105.848204 105.853437V790.151796C552.497693 848.518503 599.97919 896 658.345897 896h264.10765c58.330074 0 105.811571-47.481497 105.811571-105.848204V508.79004c-0.0157-58.371941-47.481497-105.853438-105.811571-105.853437z m-275.432455 445.194638c-25.329047 0-45.901048-20.592934-45.901049-45.906282v-305.508082c0-25.313347 20.582468-45.906281 45.901049-45.906282h286.767727c25.276714 0 45.864415 20.598167 45.864415 45.906282V802.224959c0 25.313347-20.587701 45.906281-45.864415 45.906282h-286.767727zM369.950621-120.95078H105.848204c-58.356241 0-105.848204 47.476264-105.848204 105.853438v281.366988c0 58.356241 47.48673 105.848204 105.848204 105.848205h264.10765c58.330074 0 105.806338-47.491964 105.806339-105.848205v-281.366988c-0.005233-58.377174-47.476264-105.853438-105.811572-105.853438z m-275.437689 445.189405c-25.323814 0-45.901048-20.592934-45.901048-45.906281v-305.50285c0-25.318581 20.582468-45.906281 45.901048-45.906281h286.772961c25.276714 0 45.859182 20.598167 45.859182 45.906281v305.50285c0 25.318581-20.582468 45.906281-45.859182 45.906281H94.512932z"  horiz-adv-x="1028" />

    
    <glyph glyph-name="shaixuan1" unicode="&#59371;" d="M827.112727 760.692364l-260.933818-324.189091v-429.381818l-116.363636 101.794909V436.48L188.858182 760.692364a11.124364 11.124364 0 0 0-1.419637 12.334545 11.101091 11.101091 0 0 0 10.472728 6.586182H818.036364a11.170909 11.170909 0 0 0 10.519272-6.609455 11.170909 11.170909 0 0 0-1.442909-12.311272M818.036364 849.454545H197.934545c-31.650909 0-59.810909-17.687273-73.472-46.266181a80.872727 80.872727 0 0 1 10.007273-86.248728L379.997091 411.927273v-308.247273c0-16.802909 7.214545-32.791273 19.851636-43.799273l139.636364-122.181818a57.786182 57.786182 0 0 1 62.370909-9.192727 57.576727 57.576727 0 0 1 34.141091 52.992V411.927273L881.501091 716.916364a80.872727 80.872727 0 0 1 10.007273 86.248727A80.779636 80.779636 0 0 1 818.036364 849.454545"  horiz-adv-x="1024" />

    
    <glyph glyph-name="shouye" unicode="&#58900;" d="M387.018497 685.373908c17.179264 0 31.099299 13.925151 31.099299 31.099299l0 10.366092 186.597839 0 0-10.366092c0-17.175171 13.920034-31.099299 31.099299-31.099299s31.099299 13.925151 31.099299 31.099299L666.914232 799.406035c0 17.175171-13.920034 31.099299-31.099299 31.099299s-31.099299-13.925151-31.099299-31.099299l0-10.366092L418.117796 789.039943l0 10.366092c0 17.175171-13.920034 31.099299-31.099299 31.099299s-31.099299-13.925151-31.099299-31.099299l0-82.932828C355.919199 699.299059 369.83821 685.373908 387.018497 685.373908zM400.416646 581.055005c-17.179264 0-31.099299-13.925151-31.099299-31.099299l0-30.340005c0-17.175171 13.920034-31.099299 31.099299-31.099299s31.099299 13.925151 31.099299 31.099299L431.515944 549.955706C431.516967 567.130877 417.596933 581.055005 400.416646 581.055005zM622.416785 581.055005c-17.179264 0-31.099299-13.925151-31.099299-31.099299l0-30.340005c0-17.175171 13.920034-31.099299 31.099299-31.099299s31.099299 13.925151 31.099299 31.099299L653.516084 549.955706C653.517107 567.130877 639.597073 581.055005 622.416785 581.055005zM511.103584 349.619982c43.773969 0 74.783217 30.18344 86.212524 48.016597 9.182127 14.33038 5.021364 33.210379-9.202593 42.569538-14.213723 9.379625-33.428344 5.385661-42.974767-8.706289-0.132006-0.197498-13.555737-19.680225-34.035164-19.680225-19.903306 0-32.29452 18.039865-33.124422 19.290345-9.151427 14.349823-28.173666 18.72855-42.650379 9.718339-14.588253-9.06547-19.072381-28.245298-10.001795-42.832528C436.493306 380.031619 467.116767 349.619982 511.103584 349.619982zM463.633433-2.665457 266.173199-2.665457c-41.648562 0-75.532277 34.713616-75.532277 77.374228l0 574.913888c0 42.665729 33.883715 77.374228 75.532277 77.374228 17.179264 0 31.099299 13.925151 31.099299 31.099299s-13.920034 31.099299-31.099299 31.099299c-75.946716 0-137.730874-62.61406-137.730874-139.573849l0-574.913888c0-76.959789 61.784158-139.573849 137.730874-139.573849L463.633433-64.866101c17.179264 0 31.099299 13.920034 31.099299 31.099299S480.81372-2.665457 463.633433-2.665457zM756.661256 789.196509c-17.179264 0-31.099299-13.925151-31.099299-31.099299s13.920034-31.099299 31.099299-31.099299c41.648562 0 75.532277-34.7085 75.532277-77.374228L832.193533 344.598618c0-17.175171 13.920034-31.099299 31.099299-31.099299s31.099299 13.925151 31.099299 31.099299L894.39213 649.62266C894.39213 726.582449 832.607972 789.196509 756.661256 789.196509zM840.980663 245.23047 613.392248 10.874931l-110.711498 114.006544c-11.975752 12.325723-31.655977 12.614296-43.976584 0.647753-12.320607-11.966543-12.614296-31.655977-0.647753-43.976584l133.023666-136.981814c0.10847-0.110517 0.23843-0.183172 0.347924-0.291642 0.11154-0.11154 0.186242-0.245593 0.299829-0.356111 0.771573-0.74906 1.644453-1.311879 2.470261-1.963725 0.704035-0.556679 1.363044-1.183965 2.101871-1.671059 1.031493-0.680499 2.131547-1.187035 3.219321-1.731434 0.730641-0.366344 1.426489-0.816598 2.178619-1.121544 1.25048-0.50756 2.548032-0.823761 3.841491-1.162476 0.642636-0.167822 1.26276-0.429789 1.912559-0.555655 1.961678-0.38067 3.949962-0.581238 5.939269-0.581238s3.977591 0.200568 5.939269 0.581238c0.650823 0.12689 1.269923 0.387833 1.912559 0.555655 1.293459 0.338714 2.591011 0.654916 3.841491 1.162476 0.75213 0.304945 1.447978 0.7552 2.178619 1.121544 1.087774 0.544399 2.187829 1.050935 3.219321 1.731434 0.738827 0.487094 1.397836 1.11438 2.101871 1.671059 0.825808 0.651846 1.698688 1.215688 2.470261 1.963725 0.113587 0.110517 0.188288 0.24457 0.299829 0.356111 0.109494 0.10847 0.239454 0.181125 0.347924 0.291642l249.900583 257.331833c11.966543 12.320607 11.672854 32.011064-0.647753 43.976584C872.637664 257.839649 852.956416 257.561309 840.980663 245.23047z"  horiz-adv-x="1024" />

    
    <glyph glyph-name="gongzuojingyan" unicode="&#59292;" d="M864-64h-704A160.192 160.192 0 0 0 0 96v448C0 632.192 71.808 704 160 704h704C952.256 704 1024 632.192 1024 544v-448c0-88.256-71.744-160-160-160zM160 640C107.072 640 64 596.928 64 544v-448c0-52.928 43.072-96 96-96h704c52.928 0 96 43.072 96 96v448c0 52.928-43.072 96-96 96h-704zM672 672h-64V768.256L416 768v-96h-64V768.256A64 64 0 0 0 416 832h192c35.328 0 64-28.608 64-63.744V672zM512 317.376a32 32 0 0 0-32 32v59.52a32 32 0 0 0 64 0v-59.52a32 32 0 0 0-32-32zM512 396.032c-160.384 0-315.968 18.432-462.4 54.72a32 32 0 1 0 15.36 62.08c282.88-70.144 611.2-70.144 894.08 0a32 32 0 1 0 15.36-62.08c-146.432-36.352-302.016-54.72-462.4-54.72z"  horiz-adv-x="1024" />

    
    <glyph glyph-name="wallet-lock" unicode="&#58920;" d="M232.208275 186.268282a58.221016 58.221016 0 0 1-19.407006-112.685838v-82.636282H250.989248V74.20847600000002a58.221016 58.221016 0 0 1-19.407006 112.685838zM969.04845 727.160305h-38.814011l-20.033038 98.287092a87.018508 87.018508 0 0 1-38.814011 57.594984A72.619762 72.619762 0 0 1 814.418438 894.310964L250.989248 736.550791a79.506119 79.506119 0 0 1-44.448303-30.049557 91.400735 91.400735 0 0 1-24.415265-62.603243v-112.685838A142.735395 142.735395 0 0 1 84.46462 393.485017v-110.80774a231.632001 231.632001 0 1 1 366.228974-254.169169h518.980888a83.888346 83.888346 0 0 1 79.506119 87.644541V640.141796a83.888346 83.888346 0 0 1-80.132151 87.018509zM830.695282 831.707721a10.016519 10.016519 0 0 0 8.764454 0 25.041297 25.041297 0 0 0 10.016519-16.276843l17.528908-86.392476H453.197724zM147.067864 393.485017a80.132152 80.132152 0 0 0 80.132151 78.880087h11.268584A80.132152 80.132152 0 0 0 317.974718 393.485017v-71.993729a224.745644 224.745644 0 0 1-170.906854 0z m85.766443-457.003676a170.906854 170.906854 0 1 0 169.028757 170.906854 170.280822 170.280822 0 0 0-169.028757-172.784952z m736.840175 156.508108H463.214243v13.772714a232.258033 232.258033 0 0 1-82.636281 175.915114V393.485017a142.735395 142.735395 0 0 1-135.223006 140.231266v106.425513c0 14.398746 8.764454 25.041297 16.902876 25.041298h706.790618c8.138422 0 16.902876-10.642551 16.902875-25.041298V518.691504h-211.598962a31.301622 31.301622 0 0 1-31.301622-31.301622V268.27853100000004a31.301622 31.301622 0 0 1 31.301622-31.301622h211.598962v-118.946162c0-16.276843-8.764454-26.919395-16.902875-26.919395z m16.902876 206.590703h-180.923374V456.088261h180.297341zM865.127066 375.95610899999997a35.683849 30.675589000000002 90 1 1 61.351178 0 35.683849 30.675589000000002 90 1 1-61.351178 0Z"  horiz-adv-x="1051" />

    
    <glyph glyph-name="fukuan" unicode="&#58966;" d="M840.3 700.6H724.6c-15.6 71.9-79.8 126-156.3 126h-344c-88.2 0-160-71.8-160-160v-605.8c0-65.8 53.6-119.4 119.4-119.4h656.6c65.8 0 119.4 53.6 119.4 119.4V581.2c0 65.9-53.5 119.4-119.4 119.4z m-683.8 33.8c18.2 18.2 42.3 28.2 67.8 28.2h344c25.5 0 49.6-10 67.8-28.2 9.8-9.8 17.2-21.3 21.9-33.7H183.7c-19 0-37-4.5-52.9-12.4 4 17.2 12.8 33.1 25.7 46.1z m683.8-733.3H183.7c-32.9 0-59.7 26.8-59.7 59.7V581.2c0 32.9 26.8 59.7 59.7 59.7h656.6c32.9 0 59.7-26.8 59.7-59.7v-97.5H560.6c-35.3 0-64-28.7-64-64v-186c0-35.3 28.7-64 64-64H900v-109c0-32.8-26.8-59.6-59.7-59.6zM900 419.8v-186H592.6c-17.6 0-32 14.4-32 32v122c0 17.6 14.4 32 32 32H900zM659 326.8m-48 0a48 48 0 1 1 96 0 48 48 0 1 1-96 0Z"  horiz-adv-x="1024" />

    
    <glyph glyph-name="rencaifuwu" unicode="&#58902;" d="M800.954 351.908a327.475 327.475 0 0 0 53.473-23.45c65.004-36.393 112.702-88.637 142.603-156.877 20.787-47.329 28.61-97.054 25.907-148.582-0.901-16.302-9.155-27.566-22.733-30.74-19.804-4.69-37.52 10.833-36.127 31.744 3.83 57.364-8.704 110.878-39.424 159.436-40.94 64.8-99.164 105.39-174.407 121.16-11.653 2.437-23.47 3.256-35.164 5.08-13.23 2.109-23.512 12.942-24.495 25.6-1.126 14.397 6.656 26.623 19.968 30.924 34.837 11.366 62.976 32.358 85.75 60.682 23.9 29.737 37.765 63.898 40.653 101.909 4.076 53.821-11.325 101.683-47.145 142.479-27.361 31.191-61.583 50.893-101.95 60.068-16.813 3.81-33.976 4.505-51.158 4.546a28.18 28.18 0 0 0-27.935 22.324c-3.768 17.51 8.909 32.931 28.057 33.71 36.598 1.454 72.05-4.301 105.554-19.15 75.879-33.545 125.85-90.295 144.671-171.171 19.907-85.258-1.659-160.993-60.6-225.853-3.81-4.199-7.967-8.07-12.083-11.92-4.117-3.87-8.438-7.557-13.415-11.92z m-402.309-96.563l40.817-69.428c18.493-31.395 36.925-62.832 55.521-94.187 1.864-3.113 1.782-4.813-0.922-7.475a18264.801 18264.801 0 0 1-91.934-90.583c-2.663-2.642-4.137-3.093-7.066-0.144a25750.548 25750.548 0 0 1-92.262 90.972c-2.171 2.13-2.868 3.564-1.106 6.575 31.682 53.616 63.201 107.274 94.802 160.952 0.491 0.921 1.126 1.72 2.15 3.318zM787.13 20.93c-3.952 23.94-9.605 47.472-18.104 70.225-39.608 106.169-110.9 182.99-213.914 230.319a378.122 378.122 0 0 1-32.317 12.759c66.99 42.823 108.749 102.113 119.91 180.777 11.182 78.602-10.752 148.11-64.389 206.458a250.348 250.348 0 0 1-370.831-1.27c-51.057-56.258-72.602-123.289-63.59-198.696 9.768-81.388 52.019-142.828 120.565-186.84-1.188-1.535-3.072-1.72-4.67-2.252-10.198-3.564-20.131-7.619-29.941-12.083-77.087-35.43-137.257-89.62-180.327-162.673A392.397 392.397 0 0 1 0.678 22.365c-2.52-14.93 3.317-28.017 15.851-33.71 14.91-6.718 30.106-3.114 39.65 8.887 4.997 6.267 6.287 13.742 7.72 21.156 13.824 71.086 46.04 132.567 99.287 181.658 88.658 81.776 193.106 109.834 310.334 82.33 94.74-22.18 165.622-78.52 213.873-163 19.578-34.284 31.15-71.415 38.359-110.08 3.01-16.282 19.599-26.645 36.638-23.553 15.995 2.867 27.423 18.842 24.74 34.878zM393.894 356.7A193.823 193.823 0 0 0 199.62 551.24c0.328 107.581 87.45 194.314 194.294 194.068 107.07-0.246 194.13-87.45 194.069-194.376-0.082-107.069-87.04-194.498-194.09-194.232z m0 0"  horiz-adv-x="1024" />

    
    <glyph glyph-name="zhongping" unicode="&#58942;" d="M509.4-62.2c-60.4 0-118.9 11.9-174.1 35.1-53.2 22.5-101.1 54.8-142.1 95.9-41 41-73.3 88.9-95.9 142.1C74 266.1 62.2 324.6 62.2 385S74 503.9 97.3 559c22.5 53.2 54.8 101.1 95.9 142.1 41 41 88.9 73.3 142.1 95.9C390.5 820.3 449 832.1 509.4 832.1S628.3 820.3 683.5 797c53.2-22.5 101.1-54.8 142.1-95.9 41-41 73.3-88.9 95.9-142.1 23.3-55.2 35.1-113.7 35.1-174.1S944.7 266 921.5 210.8c-22.5-53.3-54.8-101.1-95.9-142.1-41-41-88.9-73.3-142.1-95.9-55.2-23.2-113.7-35-174.1-35z m0 827.9c-209.9 0-380.7-170.8-380.7-380.7s170.8-380.7 380.7-380.7S890.1 175.1 890.1 385 719.3 765.7 509.4 765.7zM341.6 485.9m-55.9 0a55.9 55.9 0 1 1 111.8 0 55.9 55.9 0 1 1-111.8 0ZM677.2 487m-55.9 0a55.9 55.9 0 1 1 111.8 0 55.9 55.9 0 1 1-111.8 0ZM637.1 193.4h-256c-16.6 0-30 13.4-30 30s13.4 30 30 30h256c16.6 0 30-13.4 30-30s-13.5-30-30-30z"  horiz-adv-x="1024" />

    
    <glyph glyph-name="chaping" unicode="&#58943;" d="M509.4-62.2c-60.4 0-118.9 11.9-174.1 35.1-53.2 22.5-101.1 54.8-142.1 95.9-41 41-73.3 88.9-95.9 142.1C74 266.1 62.2 324.6 62.2 385S74 503.9 97.3 559c22.5 53.2 54.8 101.1 95.9 142.1 41 41 88.9 73.3 142.1 95.9C390.5 820.3 449 832.1 509.4 832.1S628.3 820.3 683.5 797c53.2-22.5 101.1-54.8 142.1-95.9 41-41 73.3-88.9 95.9-142.1 23.3-55.2 35.1-113.7 35.1-174.1S944.7 266 921.5 210.8c-22.5-53.3-54.8-101.1-95.9-142.1-41-41-88.9-73.3-142.1-95.9-55.2-23.2-113.7-35-174.1-35z m0 827.9c-209.9 0-380.7-170.8-380.7-380.7s170.8-380.7 380.7-380.7S890.1 175.1 890.1 385 719.3 765.7 509.4 765.7zM341.6 485.9m-55.9 0a55.9 55.9 0 1 1 111.8 0 55.9 55.9 0 1 1-111.8 0ZM677.2 487m-55.9 0a55.9 55.9 0 1 1 111.8 0 55.9 55.9 0 1 1-111.8 0ZM518.4 287.5c52.5-1 100.4-26.2 142.4-75 10.8-12.5 9.4-31.5-3.2-42.3-12.5-10.8-31.5-9.4-42.3 3.2-30.3 35.2-63.1 53.4-97.7 54.2h-2.3c-61.3 0-111.8-52.8-112.7-53.7-11.2-12.1-30.2-12.8-42.3-1.5-12.2 11.3-12.9 30.3-1.6 42.4 2.8 3.1 68.6 72.8 156.6 72.8 1 0 2.1 0 3.1-0.1z"  horiz-adv-x="1024" />

    
    <glyph glyph-name="haoping" unicode="&#58947;" d="M509.4-62.2c-60.4 0-118.9 11.9-174.1 35.1-53.2 22.5-101.1 54.8-142.1 95.9-41 41-73.3 88.9-95.9 142.1C74 266.1 62.2 324.6 62.2 385S74 503.9 97.3 559c22.5 53.2 54.8 101.1 95.9 142.1 41 41 88.9 73.3 142.1 95.9C390.5 820.3 449 832.1 509.4 832.1S628.3 820.3 683.5 797c53.2-22.5 101.1-54.8 142.1-95.9 41-41 73.3-88.9 95.9-142.1 23.3-55.2 35.1-113.7 35.1-174.1 0-60.4-11.9-118.9-35.1-174.1-22.5-53.3-54.8-101.1-95.9-142.1-41-41-88.9-73.3-142.1-95.9-55.2-23.2-113.7-35-174.1-35z m0 827.9c-209.9 0-380.7-170.8-380.7-380.7s170.8-380.7 380.7-380.7S890.1 175.1 890.1 385 719.3 765.7 509.4 765.7zM341.6 485.9m-55.9 0a55.9 55.9 0 1 1 111.8 0 55.9 55.9 0 1 1-111.8 0ZM677.2 487m-55.9 0a55.9 55.9 0 1 1 111.8 0 55.9 55.9 0 1 1-111.8 0ZM515.3 162.9c-88 0-153.8 69.7-156.6 72.8-11.3 12.1-10.6 31.1 1.6 42.4 12.1 11.3 31.1 10.6 42.3-1.5 0.9-0.9 51.4-53.7 112.7-53.7h2.3c34.6 0.8 67.4 19 97.7 54.2 10.8 12.6 29.8 14 42.3 3.2 12.6-10.8 14-29.8 3.2-42.3-42-48.8-89.9-74-142.4-75-1-0.1-2.1-0.1-3.1-0.1z"  horiz-adv-x="1024" />

    
    <glyph glyph-name="pingjia" unicode="&#58913;" d="M841.074 797.772h-661.65c-46.153 0-83.568-45.569-83.568-95.274l1.162-456.669c0-49.706 33.621-90 79.774-90l129.349-0.069-28.662-185.808 301.977 185.424 262.489 0.652c46.153 0 83.568 40.294 83.568 90l2.632 456.669c-0.001 49.705-40.917 95.075-87.071 95.075z m28.439-551.388l-0.001-0.356c0-9.859-3.379-18.928-9.514-25.535-3.586-3.862-9.628-8.465-18.054-8.465h-0.139l-262.489-0.652a56.01 56.01 0 0 1-29.164-8.278L351.267 80.974l10.219 66.248a56 56 0 0 1-55.315 64.538l-129.379 0.069c-2.165 0-8.752 0-14.952 7.124-5.607 6.442-8.822 16.238-8.822 26.876v0.157l-1.161 456.566c0.026 21.128 15.169 39.22 27.568 39.22h661.651c13.536 0 30.991-18.864 31.07-38.94l-2.633-456.448zM737.705 564.047H279.364c-13.88 0-25.133 12.536-25.133 28s11.252 28 25.133 28h458.341c13.88 0 25.133-12.536 25.133-28s-11.252-28-25.133-28zM744.294 344H279.706c-14.069 0-25.475 12.536-25.475 28s11.406 28 25.475 28h464.587c14.069 0 25.475-12.536 25.475-28s-11.405-28-25.474-28z"  horiz-adv-x="1024" />

    
    <glyph glyph-name="flow-others" unicode="&#58972;" d="M880.5 413.9c-1.2 24.5-16.1 45.1-39.1 53.8l-616 232.8c-21.1 8-44.7 3.6-61.6-11.4s-24-37.9-18.6-59.9l128.9-519.6c4.6-18.6 17.3-33.5 34.9-41.1 7.7-3.3 15.9-5 24-5 10.3 0 20.5 2.7 29.8 7.9L517.2 159c7.9 4.5 17.8 3.1 24.2-3.3l35.8-35.8c14.4-14.4 34.9-20.6 54.8-16.5 19.9 4 36.4 17.7 44.1 36.6l64.6 159c1.9 4.6 5.4 8.4 9.8 10.5l96.2 47.1c22 10.8 35 32.8 33.8 57.3z m-51.6-21l-96.2-47.1c-7.9-3.9-14.8-9.4-20.3-16.1L338.1 543.6c-10.2 5.8-20.4-7.4-12.2-15.8l236.9-242.7c1-1 1.8-2.2 2.3-3.6l50.6-138.4c-3.6 0.8-7 2.7-9.8 5.5l-35.8 35.8c-11.6 11.6-27.2 17.7-42.9 17.7-10.2 0-20.5-2.6-29.8-7.9L343 106.60000000000002c-5.5-3.1-12.1-3.5-17.9-1-5.9 2.5-10.1 7.5-11.6 13.7L184.4 638.9c-2.7 10.7 3.4 17.5 6.2 20 2.7 2.4 10.2 7.7 20.5 3.8l616.1-232.8c11.5-4.4 12.9-14.8 13-17.9 0.1-3.1-0.2-13.7-11.3-19.1z"  horiz-adv-x="1024" />

    
    <glyph glyph-name="zhiwei" unicode="&#58922;" d="M454.9632 672h114.0736l44.8 89.6H410.112l44.8-89.6z m-88.2688 153.6h290.6112a37.12 37.12 0 0 0 33.2288-53.76l-66.048-131.9936c-9.728-19.5072-29.696-31.8464-51.5072-31.8464H451.0208c-21.8112 0-41.7792 12.288-51.5072 31.8464l-66.048 132.0448a37.12 37.12 0 0 0 33.2288 53.7088zM282.5216 205.2096l116.48 326.144c8.192 22.9376 29.9008 38.2464 54.272 38.2464h117.504c24.32 0 46.08-15.3088 54.272-38.2464l116.4288-326.144c7.4752-20.992 2.2528-44.3392-13.5168-60.1088l-189.696-189.696a37.12 37.12 0 0 0-52.5312 0l-189.696 189.696a57.6 57.6 0 0 0-13.5168 60.1088z m61.6448-17.7152L512 19.6608l167.8336 167.8336-113.5616 318.1056H457.728l-113.5616-318.1056z"  horiz-adv-x="1024" />

    
    <glyph glyph-name="jiaoyu" unicode="&#58884;" d="M483.282944 410.8032l-17.4592 0.768 8.8832 2.816 8.576-3.584z m274.688 92.672a51.2 51.2 0 0 0 66.56-48.8448v-341.9648a51.2 51.2 0 0 0-33.8944-48.1792l-299.9296-107.8272a51.2 51.2 0 0 0-34.2272-0.1536L147.718144 64.51199999999994a51.2 51.2 0 0 0-34.2784 48.3328V489.5232c0 6.2976 2.304 12.0576 6.0416 16.512l-87.808 36.3776a51.2 51.2 0 0 0 2.8672 95.6928L472.146944 789.248a51.2 51.2 0 0 0 34.3808-0.3584l470.1696-172.9536a25.6 25.6 0 0 0-17.664-48.0512L488.863744 740.8128 51.282944 589.7216000000001l423.424-175.36 283.264 89.088zM164.665344 112.81920000000002l308.736-107.9808 299.9296 107.8272V454.656L472.300544 359.93600000000004 164.665344 487.3472v-374.528zM952.326144 575.488a25.6 25.6 0 1 0 51.2 0v-303.9744a25.6 25.6 0 0 0-51.2 0V575.488zM972.857344 228.55679999999995l9.0112 1.4592a25.6 25.6 0 0 0 29.6704-25.2672v-44.8512a25.6 25.6 0 0 0-21.5552-25.2672l-9.0368-1.4592A25.6 25.6 0 0 0 951.302144 158.46400000000006v44.8a25.6 25.6 0 0 0 21.5552 25.2928z"  horiz-adv-x="1024" />

    
    <glyph glyph-name="diliweizhi" unicode="&#59270;" d="M507.272533 297.301333c-110.2848 0-200.0384 87.159467-200.0384 194.235734 0 107.093333 89.770667 194.2528 200.0384 194.2528 110.2848 0 200.0384-87.159467 200.0384-194.2528 0-107.178667-89.770667-194.218667-200.0384-194.218667z m0 332.970667c-78.779733 0-143.018667-62.2592-143.018666-138.837333 0-76.612267 64.119467-138.752 143.018666-138.752 78.8992 0 142.882133 62.2592 142.882134 138.752 0 76.475733-64 138.820267-142.882134 138.820266z m0-710.485333a95.914667 95.914667 0 0 0-75.093333 35.464533l-19.6608 24.046933C302.882133 113.6128 119.466667 338.3296 119.466667 485.205333 119.466667 692.8384 293.4272 861.866667 507.392 861.866667c213.947733 0 387.908267-168.9088 387.908267-376.661334 0-146.875733-183.534933-371.6096-293.154134-505.9072l-19.5584-24.064a96.9216 96.9216 0 0 0-75.3152-35.447466z m0 886.5792c-182.442667 0-330.871467-144.110933-330.871466-321.262934 0-127.453867 182.664533-351.232 280.7808-471.415466l19.780266-24.149334c14.779733-18.141867 45.841067-18.141867 60.6208 0l19.677867 24.149334c98.133333 120.183467 280.8832 343.9616 280.8832 471.517866 0 177.0496-148.4288 321.160533-330.871467 321.160534z"  horiz-adv-x="1024" />

    
    <glyph glyph-name="gongzuo" unicode="&#59272;" d="M972.8 663.210667c0 33.109333-6.690133 39.492267-39.253333 39.7824H686.933333v7.560533c0 83.336533-67.464533 150.9888-150.920533 151.313067h-65.706667c-83.456-0.170667-151.057067-67.6864-151.210666-151.04v-7.543467H73.693867C40.8064 702.993067 34.133333 696.32 34.133333 663.5008V7.68c0-32.8192 8.1408-41.233067 41.301334-41.233067h855.790933c33.143467 0 41.284267 8.123733 41.284267 40.96C972.6976 225.9968 972.8 444.586667 972.8 663.210667zM470.3232 809.591467h64.853333a99.2256 99.2256 0 0 0 70.570667-28.603734 98.986667 98.986667 0 0 0 29.44-70.144c0.136533-2.218667 0.136533-4.4544 0-6.690133H373.486933a60.928 60.928 0 0 0 0 6.690133 99.089067 99.089067 0 0 0 96.836267 98.747734zM90.248533 23.9616V375.0912h338.773334v-53.418667h148.8896v52.8384h338.193066v-350.549333H90.248533z m825.856 402.261333H90.538667V646.365867h825.856l-0.290134-220.16z"  horiz-adv-x="1024" />

    
    <glyph glyph-name="work" unicode="&#59383;" d="M1022.107117 741.641481h-232.296296V792.576c0 56.13037-41.642667 101.831111-92.918519 101.831111h-278.755555c-51.237926 0-92.918519-45.662815-92.918519-101.831111V741.641481H92.921932C41.721932 741.641481 0.003413 695.978667 0.003413 639.81037v-152.727703c0-56.168296 41.680593-101.831111 92.918519-101.831111h371.674074v25.448296c0 14.070519 10.391704 25.448296 23.248593 25.448296h139.377777c12.818963 0 23.210667-11.377778 23.210667-25.448296v-25.448296h371.674074c51.275852 0 92.918519 45.662815 92.918519 101.831111V639.81037c0 56.168296-41.642667 101.831111-92.918519 101.831111z m-325.214815 0h-278.755555V792.576h278.755555V741.641481zM1102.130821 357.755259a21.617778 21.617778 0 0 1-24.348445-2.503111 86.698667 86.698667 0 0 0-55.675259-20.935111h-371.674074v-76.382815c0-14.032593-10.391704-25.41037-23.210667-25.41037h-139.377777c-12.856889 0-23.248593 11.377778-23.248593 25.41037V334.317037h-371.674074c-19.911111 0-39.139556 7.205926-55.675259 20.935111a21.428148 21.428148 0 0 1-24.348445 2.503111 25.78963 25.78963 0 0 1-12.894815-22.755555v-357.110519c0-56.13037 41.680593-101.831111 92.918519-101.831111h929.185185c51.275852 0 92.918519 45.662815 92.918519 101.831111v357.072593a25.78963 25.78963 0 0 1-12.894815 22.793481z"  horiz-adv-x="1137" />

    
    <glyph glyph-name="yijianfankui" unicode="&#58896;" d="M329.95328 640.32768 698.1632 640.32768c14.62272 0 26.43968 11.83744 26.43968 26.4192 0 14.58176-11.81696 26.4192-26.43968 26.4192L329.95328 693.16608c-14.60224 0-26.4192-11.83744-26.4192-26.4192C303.53408 652.16512 315.35104 640.32768 329.95328 640.32768L329.95328 640.32768zM329.95328 493.48608l262.43072 0c14.60224 0 26.35776 11.83744 26.35776 26.4192s-11.75552 26.39872-26.35776 26.39872L329.95328 546.304c-14.60224 0-26.4192-11.81696-26.4192-26.39872S315.35104 493.48608 329.95328 493.48608L329.95328 493.48608zM930.01728 576.4096l-66.21184 38.48192L863.80544 813.81376c0 14.76608-11.96032 26.74688-26.70592 26.74688L191.05792 840.56064c-14.7456 0-26.7264-11.96032-26.7264-26.74688l0-198.94272-66.23232-38.48192-52.79744-26.46016 0-30.53568 0-2.78528 0-570.30656 0 0c0-3.62496 0.73728-7.08608 2.08896-10.21952 0.1024-0.26624 0.26624-0.47104 0.38912-0.75776 0.7168-1.51552 1.57696-3.01056 2.60096-4.42368 4.62848-6.41024 11.96032-10.56768 20.3776-10.87488 0.32768 0 0.63488-0.1024 0.96256-0.1024L956.416-80.0768c14.60224 0 26.39872 11.83744 26.39872 26.37824L982.81472 515.80928l0 2.78528 0 28.8768L930.01728 576.4096 930.01728 576.4096zM863.80544 553.7792l62.27968-36.18816-62.27968-36.16768L863.80544 553.7792 863.80544 553.7792zM234.27072 787.7632l559.57504 0c13.12768 0 17.18272-4.01408 17.18272-17.1008l0-319.91808-296.96-172.52352-296.93952 172.52352L217.12896 770.64192C217.14944 783.74912 221.184 787.7632 234.27072 787.7632L234.27072 787.7632zM164.33152 481.44384l-62.27968 36.16768 62.27968 36.18816L164.33152 481.44384 164.33152 481.44384zM930.01728-27.21792 98.11968-27.21792 98.11968 458.79296l402.65728-233.8816c0.36864-0.3072 0.8192-0.4096 1.2288-0.59392 0.59392-0.32768 1.16736-0.53248 1.76128-0.79872 0.98304-0.43008 1.96608-0.79872 2.9696-1.1264 0.65536-0.16384 1.29024-0.26624 1.96608-0.43008 0.96256-0.2048 1.92512-0.36864 2.92864-0.45056 0.8192-0.04096 1.6384-0.04096 2.4576-0.04096s1.6384 0 2.4576 0.04096c0.98304 0.1024 1.9456 0.26624 2.92864 0.45056 0.65536 0.18432 1.31072 0.28672 1.96608 0.43008 1.00352 0.32768 1.98656 0.69632 2.99008 1.1264 0.59392 0.26624 1.16736 0.47104 1.76128 0.79872 0.4096 0.2048 0.83968 0.3072 1.2288 0.59392l402.6368 233.8816L930.05824-27.21792 930.01728-27.21792zM930.01728-27.21792"  horiz-adv-x="1024" />

    
    <glyph glyph-name="wallet" unicode="&#58948;" d="M1036.050773-2.950827c0-0.003413 0-0.003413 0-0.003413-0.001707-68.11648-55.217493-123.339093-123.33056-123.339093-0.003413 0-0.00512-0.001707-0.00512-0.001707L123.339093-126.29504c-0.003413 0-0.003413 0.001707-0.01024 0.001707-68.11136 0-123.328853 55.220907-123.328853 123.339093L0 737.083733c0 54.493867 44.178773 98.674347 98.674347 98.674347 0.003413 0 0.006827 0 0.01024 0L497.563307 835.754667l87.323307 43.444907c12.672 4.599467 32.139947 6.23616 42.315093-2.138453l23.78752-41.304747 187.723093 0c54.493867 0 98.66752-44.177067 98.66752-98.674347l0-73.99936 0.003413 0c54.493867 0 98.670933-44.173653 98.670933-98.67264L1036.050773-2.950827 1036.050773-2.950827zM98.674347 786.418347c-0.003413 0-0.003413 0-0.003413 0-27.245227 0-49.332907-46.752427-49.332907-74.002773 0-27.24864 22.08768-49.33632 49.339733-49.33632l35.648853 0c-0.003413 0-24.66816 0-24.66816 0l4.672853 0c0.315733 0.126293 0.523947 0.395947 0.84992 0.51712l295.565653 122.820267L98.674347 786.418347 98.674347 786.418347zM618.61376 781.969067l-26.221227 47.445333-0.003413 0.001707-87.860907-42.999467-0.223573 0-272.320853-123.337387 445.55776 0L618.61376 781.969067 618.61376 781.969067zM888.04864 737.08032c0 27.24864-22.089387 49.33632-49.33632 49.33632l-169.782613 0 60.540587-123.33568 158.574933 0c0 0 0 0 0.00512 0L888.050347 737.08032 888.04864 737.08032zM937.38496 613.73952 98.674347 613.73952c-0.006827 0-0.011947 0.006827-0.02048 0.006827-18.061653 0.003413-34.75968 5.213867-49.317547 13.684053l0-630.381227c0-40.874667 33.133227-74.001067 74.001067-74.001067l789.37088 0c40.871253 0 74.002773 33.1264 74.002773 74.001067L986.71104 169.726293l-98.674347 0c-54.49216 0-98.665813 44.171947-98.665813 98.66752 0 54.49216 44.173653 98.669227 98.665813 98.669227l98.674347 0L986.71104 564.406613C986.714453 591.655253 964.625067 613.73952 937.38496 613.73952L937.38496 613.73952zM986.712747 219.057493l0.001707 98.67264-98.669227 0c-27.246933 0-49.33632-22.08768-49.33632-49.33632 0-27.252053 22.089387-49.33632 49.33632-49.33632L986.712747 219.057493 986.712747 219.057493 986.712747 219.057493zM888.04352 293.06368l49.33632 0 0-49.329493-49.33632 0L888.04352 293.06368 888.04352 293.06368z"  horiz-adv-x="1037" />

    
    <glyph glyph-name="shezhi" unicode="&#59003;" d="M745.244444-128c-22.755556 0-51.2 11.377778-68.266666 28.444444l-11.377778 11.377778c-51.2 45.511111-136.533333 45.511111-187.733333 0l-11.377778-11.377778c-22.755556-22.755556-68.266667-34.133333-102.4-22.755555l-68.266667 34.133333c-39.822222 28.444444-56.888889 39.822222-62.577778 45.511111-22.755556 22.755556-34.133333 62.577778-28.444444 96.711111l5.688889 17.066667c5.688889 34.133333 0 68.266667-17.066667 102.4-17.066667 22.755556-45.511111 45.511111-79.644444 56.888889l-11.377778 5.688889c-34.133333 5.688889-62.577778 39.822222-68.266667 73.955555 0 0-5.688889 22.755556-5.688889 73.955556s5.688889 73.955556 5.688889 73.955556c5.688889 34.133333 34.133333 68.266667 68.266667 73.955555l17.066667 5.688889c34.133333 11.377778 62.577778 34.133333 79.644444 62.577778 17.066667 28.444444 22.755556 68.266667 17.066667 102.4l-5.688889 17.066666c-11.377778 34.133333 0 73.955556 28.444444 96.711112 0 0 17.066667 17.066667 62.577778 39.822222C347.022222 884.622222 369.777778 890.311111 369.777778 890.311111c34.133333 11.377778 73.955556 0 96.711111-22.755555l11.377778-11.377778c51.2-45.511111 136.533333-45.511111 187.733333 0l11.377778 11.377778c22.755556 22.755556 68.266667 34.133333 96.711111 22.755555l68.266667-34.133333c45.511111-28.444444 62.577778-39.822222 62.577777-39.822222 28.444444-22.755556 39.822222-62.577778 28.444445-96.711112l-5.688889-17.066666c-5.688889-34.133333 0-68.266667 17.066667-102.4 17.066667-28.444444 45.511111-51.2 79.644444-62.577778l11.377778-5.688889c34.133333-5.688889 62.577778-39.822222 68.266666-73.955555 0 0 5.688889-22.755556 5.688889-73.955556s-5.688889-73.955556-5.688889-73.955556c-5.688889-34.133333-34.133333-68.266667-68.266666-73.955555l-17.066667-5.688889c-34.133333-11.377778-62.577778-34.133333-79.644444-62.577778-17.066667-28.444444-22.755556-68.266667-17.066667-102.4l5.688889-11.377778c11.377778-34.133333 0-73.955556-28.444445-96.711111 0 0-17.066667-17.066667-62.577777-39.822222-45.511111-28.444444-62.577778-34.133333-68.266667-34.133333-5.688889-5.688889-17.066667-11.377778-22.755556-11.377778zM392.533333 839.111111h-11.377777s-17.066667-5.688889-56.888889-28.444444-56.888889-34.133333-56.888889-34.133334c-11.377778-5.688889-11.377778-28.444444-11.377778-34.133333l5.688889-17.066667c11.377778-51.2 5.688889-102.4-22.755556-142.222222-22.755556-45.511111-62.577778-73.955556-113.777777-91.022222l-11.377778-11.377778c-11.377778 0-22.755556-17.066667-28.444445-28.444444 0 0-5.688889-17.066667-5.688889-68.266667s5.688889-68.266667 5.688889-68.266667c0-11.377778 17.066667-22.755556 28.444445-28.444444l17.066666-5.688889c51.2-17.066667 91.022222-45.511111 113.777778-91.022222 28.444444-39.822222 34.133333-91.022222 22.755556-136.533334l-5.688889-17.066666c-5.688889-11.377778 0-28.444444 11.377778-34.133334 0 0 17.066667-11.377778 56.888889-34.133333 39.822222-22.755556 56.888889-28.444444 56.888888-28.444444 11.377778-11.377778 28.444444-5.688889 34.133334 0l11.377778 11.377777c73.955556 73.955556 199.111111 68.266667 267.377777 0l11.377778-11.377777c11.377778-5.688889 28.444444-11.377778 39.822222-5.688889 0 0 17.066667 5.688889 56.888889 28.444444s56.888889 34.133333 56.888889 34.133334c11.377778 5.688889 11.377778 28.444444 11.377778 34.133333l-5.688889 17.066667c-11.377778 51.2-5.688889 102.4 22.755556 147.911111 22.755556 45.511111 62.577778 73.955556 113.777777 91.022222h17.066667c11.377778 0 22.755556 17.066667 28.444444 28.444444 0 0 5.688889 17.066667 5.688889 68.266667 0 45.511111-5.688889 68.266667-5.688889 68.266667 0 11.377778-17.066667 22.755556-28.444444 28.444444l-17.066667 5.688889c-51.2 17.066667-91.022222 45.511111-113.777777 91.022222-22.755556 45.511111-34.133333 91.022222-22.755556 142.222222l5.688889 17.066667c5.688889 11.377778 0 28.444444-11.377778 34.133333 0 0-17.066667 11.377778-56.888889 34.133334-39.822222 22.755556-56.888889 28.444444-56.888889 28.444444-11.377778 5.688889-28.444444 0-34.133333-11.377778l-11.377778-11.377777c-73.955556-73.955556-199.111111-68.266667-267.377778 0l-11.377777 11.377777c-11.377778 11.377778-22.755556 17.066667-34.133334 17.066667zM568.888889 150.755556c-130.844444 0-233.244444 102.4-233.244445 233.244444S438.044444 617.244444 568.888889 617.244444c125.155556 0 233.244444-102.4 233.244444-233.244444s-102.4-233.244444-233.244444-233.244444z m0 409.6C472.177778 560.355556 392.533333 480.711111 392.533333 384c0-96.711111 79.644444-176.355556 176.355556-176.355556s176.355556 79.644444 176.355555 176.355556c0 96.711111-79.644444 176.355556-176.355555 176.355556z"  horiz-adv-x="1137" />

    
    <glyph glyph-name="gerenzhuyerukou" unicode="&#58906;" d="M967.902609-53.20347800000002l-11.130435-2.226087 11.130435 2.226087a35.172174 35.172174 0 0 0-29.384348-40.96h-6.233044a35.617391 35.617391 0 0 0-35.172174 28.93913 386.448696 386.448696 0 0 1-385.113043 311.652174 386.448696 386.448696 0 0 1-385.113043-311.652174 36.507826 36.507826 0 0 0-41.405218-28.93913 35.617391 35.617391 0 0 0-29.384348 40.96 453.231304 453.231304 0 0 0 314.323479 350.386087 299.186087 299.186087 0 0 0-166.511305 267.130434A304.528696 304.528696 0 0 0 512 862.608696a304.083478 304.083478 0 0 0 308.090435-299.631305 299.186087 299.186087 0 0 0-166.511305-267.130434 452.786087 452.786087 0 0 0 314.323479-349.050435zM264.45913 562.977391h11.130435A233.293913 233.293913 0 0 1 512 333.690435a233.293913 233.293913 0 0 1 236.410435 229.286956A233.293913 233.293913 0 0 1 512 792.264348a233.293913 233.293913 0 0 1-236.410435-229.286957z"  horiz-adv-x="1024" />

    
    <glyph glyph-name="qiehuanshenfen" unicode="&#58895;" d="M770.19648 609.024c0 158.28992-128.68608 286.976-286.976 286.976-158.27968 0-286.96576-128.68608-286.96576-286.976 0-108.90752 60.91264-203.76576 150.51264-252.3392-285.59872-98.40128-310.51264-409.71264-310.85568-413.36832-1.14176-17.02912 11.65824-31.88736 28.8-33.02912 0.68608 0 1.4848-0.11776 2.17088-0.11776 16.11264 0 29.71648 12.57472 30.85824 28.8 1.024 14.40256 28.3392 353.14688 386.9696 382.976 157.48608 1.024 285.48608 129.36704 285.48608 287.0784z m190.07488-572.45184c14.63808 0 26.42432-11.20768 26.42432-25.0368 0-13.83936-11.8528-25.04192-26.49088-25.04192H636.2624l76.032-71.73632c10.32704-9.8304 10.32704-25.66656 0-35.4304-5.1712-4.88448-11.9296-7.32672-18.74432-7.32672-6.82496 0-13.57824 2.44224-18.74432 7.3216l-116.7616 110.30016a25.40544 25.40544 0 0 0-5.56544 7.76192 23.97696 23.97696 0 0 0-4.6336 14.14656c0 13.83424 11.8528 25.0368 26.49088 25.0368h385.9456z m-114.82112 268.61568c11.32032 8.76032 28.0064 7.19872 37.27872-3.5072l95.488-110.26944c1.59232-1.87904 2.9184-3.88096 3.84-5.94944 2.9184-4.00384 4.63872-8.8832 4.63872-14.14144 0-13.83424-11.8528-25.0368-26.48576-25.0368h-385.88416c-14.63296 0-26.48576 11.20256-26.48576 25.0368 0 13.82912 11.8528 25.0368 26.48576 25.0368h331.1872l-63.77472 73.59488c-9.2672 10.7008-7.61344 26.4704 3.712 35.23584zM483.2256 834.05824c124.11392 0.11264 225.024-100.9152 225.024-225.02912 0-124.00128-100.91008-225.02912-225.024-225.02912-124.11392 0-225.02912 100.9152-225.02912 225.024 0 124.11904 100.9152 225.03424 225.024 225.03424z"  horiz-adv-x="1024" />

    
    <glyph glyph-name="kefuzhongxin" unicode="&#58883;" d="M259.713 131.843h-27.946c-95.586 0-167.68 72.072-167.68 167.679 0 95.587 72.094 167.68 167.68 167.68h27.946v-335.359zM203.821 408.23c-49.912-11.462-83.842-53.687-83.842-108.708 0-55.041 33.93-97.223 83.842-108.75v217.458zM790.696 131.843h-27.945v335.36h27.945c95.631 0 167.681-72.093 167.681-167.68 0.001-95.609-72.049-167.68-167.681-167.68M818.643 408.23v-217.414c49.913 11.484 83.883 53.708 83.883 108.73 0 55.061-33.971 97.2-83.883 108.683M818.643-7.889v55.892c13.928 0 27.948 8.691 27.948 27.948h55.936c0-47.815-36.109-83.839-83.883-83.839M706.86 48.003h111.784v-55.892h-111.784v55.892zM637.691-64.044c-46.154 0-83.844 37.618-83.844 83.839 0 46.2 37.689 83.839 83.844 83.839 46.198 0 83.839-37.638 83.839-83.839 0-46.222-37.553-83.839-83.839-83.839M637.691 47.741c-15.371 0-27.948-12.531-27.948-27.946 0-15.437 12.575-27.945 27.948-27.945 15.456 0 27.948 12.509 27.948 27.945 0 15.415-12.493 27.946-27.948 27.946M818.643 522.922h-55.892c0 138.794-112.834 251.692-251.518 251.692-138.728 0-251.52-112.899-251.52-251.692h-55.893c0 169.578 137.943 307.586 307.412 307.586 169.469 0 307.411-138.008 307.411-307.586z"  horiz-adv-x="1024" />

    
    <glyph glyph-name="qiehuanzhanghao" unicode="&#58962;" d="M856.217181 274.492934c-46.736441 55.648414-106.726743 99.783611-175.108157 127.623679 48.980551 45.476751 79.618339 110.394273 79.618339 182.467775 0 137.535423-111.589494 249.02668-249.263064 249.02668-50.233078 0-96.985892-14.838963-136.128377-40.370453-9.009188 4.585435-19.237133 7.163143-30.051433 7.163143-36.719296 0-66.479087-29.727045-66.479087-66.405409 0-13.294794 3.90289-25.677822 10.636245-36.06131-17.433044-34.003442-27.255761-72.52785-27.255761-113.353674 0-72.073502 30.636764-136.991024 79.634712-182.467775C177.784614 335.345883 62.049706 174.677601 61.545216-13.082714l1.2689 0c-0.943488-2.601244-1.447978-5.398964-1.447978-8.292873 0-13.854543 11.221576-24.913413 25.059745-24.913413l516.056386 0c13.741979 0 25.059745 11.155061 25.059745 24.913413 0 13.83817-11.220552 24.89704-25.059745 24.89704L111.891881 3.521452c7.578606 173.222203 125.509529 317.806159 285.250696 365.258914 0.325411-0.016373 0.650823-0.032746 0.976234-0.032746 13.806447 0 29.597085 6.569626 29.597085 24.913413 0 17.635659-17.383926 23.969924-30.946826 27.751041 0 0.097214 0.032746 0.194428 0.032746 0.292666-51.258431 36.068474-84.724637 95.571682-84.724637 162.879648 0 43.476187 13.96813 83.699284 37.662785 116.451222-12.115945 1.683339-21.449521 12.0832-21.449521 24.661679 0 13.757329 11.155061 24.905226 24.928762 24.905226 11.611455 0 21.400403-7.952112 24.150026-18.709107 35.498492 32.247448 82.724073 51.916417 134.535089 51.916417 110.36869 0 199.826118-89.197508 199.826118-199.225437 0-67.462484-33.646308-127.095653-85.098143-163.132404 0.031722-0.195451 0.064468-0.38988 0.097214-0.585331-13.610996-3.056616-32.490995-6.602372-32.490995-27.205619 0-21.644973 17.302061-24.783453 30.978549-24.89704 76.918857-22.848381 144.129608-68.235081 194.004529-128.485303 4.471848-7.658424 12.798491-12.81384 22.295795-12.81384 14.261818 0 25.823132 11.562337 25.823132 25.823132C867.340519 262.069997 862.949512 269.842007 856.217181 274.492934zM875.406219 136.380366 719.22718 136.380366c-13.969153 0-25.076118-11.139711-25.076118-24.89704 0-13.854543 11.220552-24.913413 25.076118-24.913413L935.510108 86.569914c13.969153 0 25.076118 11.155061 25.076118 24.913413 0 7.724938-3.495614 14.58723-8.992815 19.140942l-57.908898 57.908898c-9.854439 9.853415-25.595958 9.837042-35.32146 0.112564-9.80532-9.806343-9.691733-25.547863 0.098237-35.33681L875.406219 136.380366zM708.916347 42.858366c3.122107 1.39886 6.618744 2.178619 10.30981 2.178619L935.510108 45.036985c13.855566 0 25.076118-11.057847 25.076118-24.913413 0-13.740956-11.106965-24.89704-25.076118-24.89704L771.0208-4.773468l18.229177-18.229177c9.78997-9.788947 9.903557-25.530466 0.113587-35.320437-9.740852-9.725502-25.482371-9.741875-35.33681 0.098237l-58.754149 58.770522c-9.78997 9.788947-9.903557 25.530466-0.113587 35.320437C699.029162 39.752632 703.87554 42.077583 708.916347 42.858366z"  horiz-adv-x="1024" />

    
    <glyph glyph-name="liulanjilu" unicode="&#59019;" d="M688 336c-124.8 0-224-99.2-224-224s99.2-224 224-224 224 99.2 224 224-99.2 224-224 224z m0-384c-89.6 0-160 70.4-160 160s70.4 160 160 160 160-70.4 160-160-70.4-160-160-160zM467.2 592c16 0 28.8 12.8 28.8 32s-12.8 32-28.8 32H284.8c-16 0-28.8-12.8-28.8-32s12.8-32 28.8-32h182.4zM288 400h368c19.2 0 32 12.8 32 32s-12.8 32-32 32H288c-19.2 0-32-12.8-32-32s12.8-32 32-32zM432-16h-224c-19.2 0-32 12.8-32 32v768c0 19.2 12.8 32 32 32h512c54.4 0 96-41.6 96-96v-345.6c0-19.2 12.8-32 32-32s32 12.8 32 32V720c0 89.6-70.4 160-160 160h-512c-54.4 0-96-41.6-96-96v-768c0-54.4 41.6-96 96-96h224c19.2 0 32 12.8 32 32s-16 32-32 32zM768 128h-64v32c0 19.2-12.8 32-32 32s-32-12.8-32-32v-64c0-19.2 12.8-32 32-32h96c19.2 0 32 12.8 32 32s-12.8 32-32 32z"  horiz-adv-x="1024" />

    
    <glyph glyph-name="haoyouliebiao" unicode="&#58946;" d="M445.69 369.73a141.64 141.64 0 0 0-43 101.69c0 78.32 63.72 142 142 142s142.05-63.72 142.05-142a141.64 141.64 0 0 0-43-101.69c64.6-35.25 108.52-103.8 108.52-182.41a32.78 32.78 0 0 0-65.56 0c0 78.33-63.72 142.05-142.05 142.05a142.22 142.22 0 0 1-142-142.05 32.78 32.78 0 0 0-65.56 0c0 78.61 43.93 147.16 108.52 182.41z m-206.86-18.51H107.7a32.78 32.78 0 0 0 0 65.56h131.13a32.78 32.78 0 0 0 0-65.56z m0 142.05H107.7a32.78 32.78 0 0 0 0 65.56h131.13a32.78 32.78 0 0 0 0-65.56z m0-284.1H107.7a32.78 32.78 0 0 0 0 65.56h131.13a32.78 32.78 0 0 0 0-65.56zM832.59-64H257a116.61 116.61 0 0 0-116.51 116.48v80.2a32.78 32.78 0 0 0 65.56 0v-80.2A51 51 0 0 1 257 1.56h575.59a51 51 0 0 1 50.92 50.92v663a51 51 0 0 1-50.92 50.92H257a51 51 0 0 1-50.92-50.92v-80.2a32.78 32.78 0 1 0-65.56 0v80.2A116.61 116.61 0 0 0 257 832h575.59a116.61 116.61 0 0 0 116.48-116.48v-663A116.61 116.61 0 0 0 832.59-64zM544.78 547.9a76.49 76.49 0 1 1 76.49-76.49 76.57 76.57 0 0 1-76.49 76.49z m0 0"  horiz-adv-x="1024" />

    
    <glyph glyph-name="fabu1" unicode="&#60425;" d="M864 768h-56.64a32 32 0 0 1 0-64H864a32 32 0 0 0 32-32v-640a32 32 0 0 0-32-32H160a32 32 0 0 0-32 32V672a32 32 0 0 0 32 32h62.272a32 32 0 0 1 0 64H160a96 96 0 0 1-96-96v-640a96 96 0 0 1 96-96h704a96 96 0 0 1 96 96V672a96 96 0 0 1-96 96zM341.216 587.68L480 710.688V208a32 32 0 0 1 64 0V710.688l138.784-123.008a32.032 32.032 0 0 1 42.464 47.904l-192 170.208a32 32 0 0 1-42.464 0l-192-170.208a32 32 0 1 1 42.432-47.904z"  horiz-adv-x="1024" />

    
    <glyph glyph-name="renwu" unicode="&#58891;" d="M847.36 896H176.64c-84.48 0-153.6-69.12-153.6-153.6v-716.8c0-84.48 69.12-153.6 153.6-153.6h670.72c84.48 0 153.6 69.12 153.6 153.6V742.4c0 84.48-69.12 153.6-153.6 153.6z m102.4-870.4c0-56.32-46.08-102.4-102.4-102.4H176.64c-56.32 0-102.4 46.08-102.4 102.4V742.4c0 56.32 46.08 102.4 102.4 102.4h670.72c56.32 0 102.4-46.08 102.4-102.4v-716.8zM834.56 217.6H394.24c-15.36 0-25.6-10.24-25.6-25.6s10.24-25.6 25.6-25.6h442.88c15.36 0 25.6 10.24 25.6 25.6s-12.8 25.6-28.16 25.6zM253.44 281.6c-48.64 0-89.6-40.96-89.6-89.6S204.8 102.4 253.44 102.4s89.6 40.96 89.6 89.6c-2.56 48.64-40.96 89.6-89.6 89.6z m0-128c-20.48 0-38.4 17.92-38.4 38.4S230.4 230.4 253.44 230.4c20.48 0 38.4-17.92 38.4-38.4-2.56-20.48-17.92-38.4-38.4-38.4zM834.56 593.92H394.24c-15.36 0-25.6-10.24-25.6-25.6s10.24-25.6 25.6-25.6h442.88c15.36 0 25.6 10.24 25.6 25.6s-12.8 25.6-28.16 25.6zM238.08 504.32c5.12-2.56 10.24-5.12 15.36-5.12h5.12c7.68 2.56 12.8 5.12 15.36 12.8l64 115.2c7.68 12.8 2.56 28.16-10.24 35.84-12.8 7.68-28.16 2.56-35.84-10.24l-51.2-89.6-38.4 25.6c-12.8 7.68-28.16 5.12-35.84-7.68-7.68-12.8-5.12-28.16 7.68-35.84l64-40.96z"  horiz-adv-x="1024" />

    
    <glyph glyph-name="yaoqingma" unicode="&#58918;" d="M360.0384 821.76c16.7936 0 30.4128-12.032 30.4128-26.8288v-263.168c0-14.7968-13.6704-26.7776-30.4128-26.7776H104.1408c-16.7936 0-30.4128 11.9808-30.4128 26.7776v263.168c0 14.7968 13.6704 26.7776 30.4128 26.7776h255.8976z m0 73.6256H104.1408C46.6432 895.3856 0.0512 850.432 0.0512 794.9312v-263.168c0-55.5008 46.592-100.4544 104.0896-100.4544h255.8976c57.4976 0 104.0896 44.9536 104.0896 100.4544v263.168C464.128 850.432 417.536 895.3856 360.0384 895.3856zM309.4528 619.52a34.0992 34.0992 0 0 0-34.7136-33.536H189.44a34.0992 34.0992 0 0 0-34.7136 33.4848V707.2256c0 18.4832 15.5648 33.4848 34.7136 33.4848h85.2992c19.1488 0 34.7136-15.0016 34.7136-33.4848v-87.7568zM918.7328 821.76c16.7936 0 30.4128-12.032 30.4128-26.8288v-263.168c0-14.7968-13.6192-26.7776-30.4128-26.7776h-255.8464c-16.7936 0-30.464 11.9808-30.464 26.7776v263.168c0 14.7968 13.6704 26.7776 30.464 26.7776h255.8464z m0 73.6256h-255.8464c-57.5488 0-104.1408-44.9536-104.1408-100.4544v-263.168c0-55.5008 46.592-100.4544 104.1408-100.4544h255.8464c57.4976 0 104.0896 44.9536 104.0896 100.4544v263.168c0 55.5008-46.592 100.4544-104.0896 100.4544zM868.1472 619.52a34.0992 34.0992 0 0 0-34.7136-33.536h-85.2992a34.0992 34.0992 0 0 0-34.7136 33.4848V707.2256c0 18.4832 15.5648 33.4848 34.7136 33.4848h85.2992c19.1488 0 34.7136-15.0016 34.7136-33.4848v-87.7568zM362.0352 263.0144c16.7936 0 30.464-11.9808 30.464-26.7776v-263.168c0-14.7968-13.6704-26.7776-30.464-26.7776H106.1888c-16.7936 0-30.4128 11.9808-30.4128 26.7776v263.168c0 14.7968 13.6192 26.7776 30.4128 26.7776h255.8464z m0 73.728H106.1888c-57.4976 0-104.0896-45.056-104.0896-100.5056v-263.168c0-55.5008 46.592-100.4544 104.0896-100.4544h255.8976c57.4976 0 104.0896 44.9536 104.0896 100.4544v263.168c0 55.5008-46.592 100.4544-104.1408 100.4544zM311.5008 60.7744a34.0992 34.0992 0 0 0-34.7136-33.4848H191.488a34.0992 34.0992 0 0 0-34.7136 33.4848v87.7568c0 18.432 15.5648 33.4848 34.7136 33.4848h85.2992c19.1488 0 34.7136-15.0016 34.7136-33.4848v-87.7568zM667.8016 243.3536c0-16.7936-14.7456-30.4128-32.8704-30.4128-18.176 0-32.8704 13.6192-32.8704 30.4128v62.976c0 16.7424 14.6944 30.3616 32.8704 30.3616 18.1248 0 32.8704-13.6192 32.8704-30.4128v-62.9248zM823.296 126.1568c0-16.1792-14.6944-29.2352-32.8704-29.2352-18.1248 0-32.8704 13.056-32.8704 29.184v181.4016c0 16.128 14.7456 29.184 32.8704 29.184 18.176 0 32.8704-13.056 32.8704-29.184v-181.3504zM978.8416 184.064a32.9216 32.9216 0 1 0-65.7408 0v119.6544a32.9216 32.9216 0 1 0 65.7408 0v-119.6544zM667.8016-95.3856a32.4608 32.4608 0 0 0-32.8704-32 32.4608 32.4608 0 0 0-32.8704 32v179.6096c0 17.7152 14.6944 32.0512 32.8704 32.0512 18.1248 0 32.8704-14.336 32.8704-32.0512v-179.6096zM978.8416-96.768c0-16.896-14.6944-30.6176-32.8704-30.6176-18.1248 0-32.8704 13.7216-32.8704 30.6176v155.2896c0 16.896 14.7456 30.6688 32.8704 30.6688 18.176 0 32.8704-13.7216 32.8704-30.6688v-155.2896zM823.296-96.4608c0-17.1008-14.6944-30.9248-32.8704-30.9248-18.1248 0-32.8704 13.824-32.8704 30.9248v92.8256c0 17.1008 14.7456 30.9248 32.8704 30.9248 18.176 0 32.8704-13.824 32.8704-30.9248v-92.8256z"  horiz-adv-x="1024" />

    
    <glyph glyph-name="jianli" unicode="&#58919;" d="M703.68 825.6A64 64 0 0 0 640 768H384a64 64 0 0 0-63.68 57.6H192a57.6 57.6 0 0 1-57.6-57.6v-768a57.6 57.6 0 0 1 57.6-57.6h640a57.6 57.6 0 0 1 57.6 57.6V768a57.6 57.6 0 0 1-57.6 57.6h-128.32zM192 896h640a128 128 0 0 0 128-128v-768a128 128 0 0 0-128-128H192a128 128 0 0 0-128 128V768a128 128 0 0 0 128 128z m160-448a96 96 0 1 0 0 192 96 96 0 0 0 0-192z m192 192h192a32 32 0 1 0 0-64h-192a32 32 0 0 0 0 64z m0-128h192a32 32 0 1 0 0-64h-192a32 32 0 0 0 0 64z m-256-192h448a32 32 0 1 0 0-64h-448a32 32 0 0 0 0 64z m0-128h448a32 32 0 1 0 0-64h-448a32 32 0 1 0 0 64z"  horiz-adv-x="1024" />

    
    <glyph glyph-name="icon-test" unicode="&#58893;" d="M799.6 654.1h-230.6v-651.2h236.1c37.5 0 67.8 30.4 67.8 67.8v510.2c0 40.4-32.8 73.2-73.3 73.2zM490.3 762.7h-298.5c-43.5 0-78.7-35.2-78.7-78.7v-602.4c0-43.5 35.2-78.7 78.7-78.7h377.2v681.1c0 43.4-35.3 78.7-78.7 78.7zM232.5 675.8c-18 0-32.6-14.6-32.6-32.6s14.6-32.6 32.6-32.6 32.6 14.6 32.6 32.6c0 18.1-14.6 32.6-32.6 32.6zM233.9 567.3h-2.7c-17.2 0-31.2-14-31.2-31.2v-2.7c0-17.2 14-31.2 31.2-31.2h2.7c17.2 0 31.2 14 31.2 31.2v2.7c0 17.2-14 31.2-31.2 31.2zM341 675.8c-18 0-32.6-14.6-32.6-32.6s14.6-32.6 32.6-32.6 32.6 14.6 32.6 32.6c0 18.1-14.6 32.6-32.6 32.6z"  horiz-adv-x="1024" />

    
    <glyph glyph-name="loufang" unicode="&#58917;" d="M605.01504 623.78496H924.16V-28.16h-319.14496zM736.0512 496.35328h56.00768v-56.0128H736.0512v56.0128zM736.0512 328.31488h56.00768v-56.0128H736.0512v56.0128zM736.0512 160.2816h56.00768v-56.0128H736.0512v56.0128zM399.9744 496.35328h56.0128v-56.0128H399.9744v56.0128zM399.9744 328.31488h56.0128v-56.0128H399.9744v56.0128zM231.936 496.35328h56.0128v-56.0128H231.936v56.0128zM399.9744 664.39168h56.0128v-56.0128H399.9744v56.0128zM231.936 664.39168h56.0128v-56.0128H231.936v56.0128zM231.936 328.31488h56.0128v-56.0128H231.936v56.0128zM904.0896 664.39168h-280.064v112.0256c0 30.96064-25.05728 56.0128-56.0128 56.0128H119.9104a55.98208 55.98208 0 0 1-56.0128-56.0128v-784.1792c0-30.96064 25.05216-56.0128 56.0128-56.0128h784.18432a55.97696 55.97696 0 0 1 56.00768 56.0128V608.37888c0 30.96064-25.05216 56.0128-56.0128 56.0128zM371.96288-7.76192h-56.0128v112.0256h56.0128v-112.0256z m196.0448 0H427.9808v140.032a27.99616 27.99616 0 0 1-28.0064 28.01152H287.9488a27.99616 27.99616 0 0 1-28.0064-28.01152v-140.032H147.9168a27.99104 27.99104 0 0 0-28.0064 28.0064V748.41088a27.99104 27.99104 0 0 0 28.0064 28.0064h392.09472a27.99104 27.99104 0 0 0 28.00128-28.0064v-756.1728z m336.08192 28.0064a27.99616 27.99616 0 0 0-28.01152-28.0064H624.0256V608.37888h252.05248a27.99616 27.99616 0 0 0 28.01152-28.0064v-560.128z"  horiz-adv-x="1024" />

    
    <glyph glyph-name="zhuzhai" unicode="&#58923;" d="M512.064 885.056C235.776 885.056 10.944 660.224 10.944 384.064c0-276.416 224.832-501.056 501.12-501.056 276.16 0 500.992 224.64 500.992 501.056 0 276.16-224.832 500.992-500.992 500.992z m247.424-730.56c0-20.992-13.76-36.032-32.896-36.032H598.4v137.6c0 13.888-6.016 23.616-16.896 27.008a29.952 29.952 0 0 1-8.96 1.152 16993.28 16993.28 0 0 1-114.24 0c-16.384 0-25.728-10.368-25.728-28.608v-137.152h-127.36c-20.224 0-33.728 14.656-33.728 36.736V357.12c0 12.48 4.224 22.336 12.992 30.08l209.28 186.496c14.144 12.416 29.504 12.48 43.52 0l209.536-186.688c8.512-7.616 12.736-17.28 12.736-29.376v-203.136z m65.28 234.048c-9.024-15.424-46.656-1.088-59.52 10.048l-4.096 3.584C684.16 467.968 614.784 532.672 538.24 598.976c-1.92 1.664-3.776 3.328-5.696 4.672-13.632 9.792-27.712 9.152-40.832-2.304L332.736 463.68c-25.984-22.528-51.712-45.376-78.08-67.456a32.256 32.256 0 0 0-5.824-4.224c-4.416-2.688-4.352-3.008-8.512-4.928-11.904-5.504-25.984-11.52-39.104 3.264a40.448 40.448 0 0 0-2.752 49.088l0.768 1.088 141.568 122.56c41.856 36.224 83.776 72.448 125.504 108.8 29.504 25.472 65.024 25.472 94.528 0 88.704-76.864 165.952-147.2 254.464-224.32l5.376-4.736c0.64-0.96 4.096-4.032 4.736-4.8 0.384-0.576 0 0.128 2.24-5.312l2.88-7.936a53.12 53.12 0 0 0 1.856-8.128c0.768-5.568-0.768-16.32-7.616-28.096z"  horiz-adv-x="1024" />

    
    <glyph glyph-name="xuexiao" unicode="&#59955;" d="M417.7 322.3h185.6v-100.6H417.7zM510.5 441.5m-46.7 0a46.7 46.7 0 1 1 93.4 0 46.7 46.7 0 1 1-93.4 0ZM512 832C264.6 832 64 631.4 64 384s200.6-448 448-448 448 200.6 448 448S759.4 832 512 832z m279.3-674.8H232.7v62.9h50.6V381.3h77.4v73.2h-0.6l0.6 0.4v0.2h0.3l135.3 106.4V701h1.7v1.3h135.2V620H524.6v-58.4l135.3-106.4h0.3v-0.2l0.6-0.4h-0.6v-73.2h77.4v-161.2h53.6v-63z"  horiz-adv-x="1024" />

    
    <glyph glyph-name="xiezilou" unicode="&#60407;" d="M288.3-54.9H122.4c-28.7-1-52.7 21.4-53.8 50v622c0 27.8 20.6 41.3 40.6 54.4h0.2l6 4L304.6 802.3 320.5 813l0.4 0.3 4.8 3.2c12.4 9.2 27.2 14.5 42.7 15.2 15.3-0.7 30-6 42.2-15.2l209.6-140.4 1.2-0.8c22.4-15 41.8-28 41.8-56.7v-41.8c0.8-20.9-10.5-40.4-29-50l-50.5-32.9-103.5-67.7-5.8-3.8c-18.8-12.1-30.2-19.4-30.2-47.1v-376.4c2.2-27.5-18.4-51.6-45.9-53.8-2.6-0.2-5.2-0.2-7.8 0H288.3z m37.1 366c-3.7 0-7.2-1.1-10.3-3.1L168 212.2c-8.7-5.6-11.1-17.2-5.5-25.8 0 0 0-0.1 0.1-0.1l6.9-10.5c5.7-8.7 17.4-11.1 26.1-5.4l147 95.8c8.7 5.6 11.1 17.2 5.5 25.8 0 0 0 0.1-0.1 0.1l-6.9 10.5c-3.5 5.3-9.4 8.5-15.7 8.5z m0 162.4c-3.7 0-7.2-1.1-10.3-3.1L168 374.6c-8.7-5.6-11.1-17.2-5.5-25.8 0 0 0-0.1 0.1-0.1l6.9-10.5c5.7-8.7 17.4-11.2 26.2-5.5l147 95.8c8.7 5.6 11.1 17.2 5.5 25.8 0 0 0 0.1-0.1 0.1l-6.9 10.5c-3.5 5.3-9.4 8.6-15.8 8.5v0.1z m0 162.4c-3.7 0-7.2-1.1-10.3-3.1L168 537c-8.7-5.6-11.1-17.2-5.5-25.9 0 0 0-0.1 0.1-0.1l6.9-10.5c5.7-8.7 17.4-11.1 26.1-5.4l147 95.8c8.7 5.6 11.1 17.2 5.5 25.8 0 0 0 0.1-0.1 0.1l-6.9 10.5c-3.5 5.3-9.4 8.5-15.8 8.5l0.1 0.1z m601.8-690.8H524.7c-24.7 0-26.8 26.5-26.8 53.7V348.3c-2.6 17.9 7 35.4 23.5 42.9l153 105.1 12.1 8.3 0.2 0.2 4.8 3.3c9.9 7.6 22 12 34.5 12.6 12.4-0.6 24.2-5 34-12.6l163.4-112.2 4.7-3.2 1.4-1c16.7-7.6 26.6-25.2 24.3-43.4v-349.4c0.2-27.2-1.9-53.8-26.6-53.8z m-212.8 241c-3.7 0-7.2-1.1-10.3-3.1l-121.9-70.8c-8.7-5.6-11.1-17.2-5.5-25.9 0 0 0-0.1 0.1-0.1l6.9-10.5c5.7-8.7 17.4-11.2 26.1-5.5h0.1l121.9 70.9c8.7 5.6 11.1 17.2 5.5 25.8 0 0 0 0.1-0.1 0.1l-6.9 10.5c-3.6 5.5-9.5 8.7-15.9 8.6z m0 162.4c-3.7 0-7.2-1.1-10.3-3.1l-121.9-70.7c-8.7-5.6-11.1-17.2-5.5-25.9 0 0 0-0.1 0.1-0.1l6.9-10.5c5.7-8.7 17.4-11.1 26.2-5.4l121.9 70.8c8.7 5.6 11.1 17.2 5.5 25.8 0 0 0 0.1-0.1 0.1l-6.9 10.5c-3.5 5.4-9.5 8.6-15.9 8.5z"  horiz-adv-x="1024" />

    
    <glyph glyph-name="xiaoqu" unicode="&#60658;" d="M647.9 834.9H313.3c-42.3 0-77-34.6-77-77v-638.6c0-42.3 34.6-77 77-77h94.2V239.2c0 15.9 13 28.9 28.9 28.9h88.5c15.9 0 28.9-13 28.9-28.9v-196.8H648c42.3 0 77 34.6 77 77V757.9c-0.1 42.4-34.7 77-77.1 77zM839.4-59.6h-289c-16.6 0-30 13.4-30 30s13.4 30 30 30h289c9 0 30 0 30 50v396c0 50-21 50-30 50h-189c-16.6 0-30 13.4-30 30s13.4 30 30 30h189c31 0 55.7-12.8 71.6-37.1 12.2-18.6 18.4-43.2 18.4-72.9v-396c0-29.8-6.2-54.3-18.4-72.9-15.9-24.2-40.7-37.1-71.6-37.1zM555.7-59.6h-97.9c-16.6 0-30 13.4-30 30V175h-92v-204.6c0-16.6-13.4-30-30-30h-97.9c-60.7 0-110 49.3-110 110V714.1c0 60.7 49.3 110 110 110h347.8c60.7 0 110-49.3 110-110v-663.7c0-60.6-49.3-110-110-110z m-67.9 60h67.9c27.6 0 50 22.4 50 50V714.1c0 27.6-22.4 50-50 50H207.9c-27.6 0-50-22.4-50-50v-663.7c0-27.6 22.4-50 50-50h67.9V175c0 33.1 26.9 60 60 60h92c33.1 0 60-26.9 60-60v-174.6zM503.2 546.6H260.4c-16.6 0-30 13.4-30 30s13.4 30 30 30h242.8c16.6 0 30-13.4 30-30s-13.4-30-30-30zM503.2 398.4H260.4c-16.6 0-30 13.4-30 30s13.4 30 30 30h242.8c16.6 0 30-13.4 30-30s-13.4-30-30-30z"  horiz-adv-x="1024" />

    
    <glyph glyph-name="message" unicode="&#58882;" d="M511.961256 895.990002C229.655329 895.990002 0 699.140945 0 457.165053 0 324.015814 72.043524 198.8403 198.897486 112.719196L295.0736 53.259078C290.866749 26.346678 273.646533-31.86924 256.856282-79.225919 251.99662-93.013527 255.796351-108.375304 266.515602-118.286038 273.390836-124.647022 282.313067-128.011072 291.346717-128.011072 296.390654-128.011072 301.43601-126.985429 306.228533-124.864146 347.844189-106.328308 474.738149-46.058247 520.593507 18.412951 798.956845 22.396956 1023.929645 217.711835 1023.929645 457.165053 1023.929645 699.140945 794.274316 895.990002 511.961256 895.990002L511.961256 895.990002ZM589.930076 351.112481 366.788573 351.112481C346.59999 351.112481 330.216853 367.495618 330.216853 387.682776 330.216853 407.871365 346.59999 424.254502 366.788573 424.254502L589.930076 424.254502C610.152941 424.254502 626.496081 407.871365 626.496081 387.682776 626.496081 367.495618 610.152941 351.112481 589.930076 351.112481L589.930076 351.112481ZM659.300927 497.390801 366.788573 497.390801C346.59999 497.390801 330.216853 513.773938 330.216853 533.956806 330.216853 554.145396 346.59999 570.527101 366.788573 570.527101L659.300927 570.527101C679.522366 570.527101 695.866932 554.145396 695.866932 533.956806 695.866932 513.773938 679.522366 497.390801 659.300927 497.390801L659.300927 497.390801Z"  horiz-adv-x="1025" />

    
    <glyph glyph-name="Message" unicode="&#59275;" d="M306.58 613.41c-69.29 0-121.58-55.77-121.58-129.67 0-95.77 87.13-179.91 219.01-307.31l20.95-20c3.19-3.01 5.99-3.1 9.27 0l20.98 20c131.88 127.4 218.98 211.54 218.98 307.31 0 73.91-52.26 129.67-121.55 129.67-38.07 0-75.74-18.68-100.77-49.98L429.6 535.6l-22.24 27.82c-25.04 31.31-62.71 49.99-100.78 49.99zM429.6 95.59c-16.26 0-31.77 6.23-43.71 17.55l-21.32 20.33C221.78 271.4 127.45 362.51 127.45 483.74c0 105.8 78.7 188.68 179.13 188.68 45.38 0 88.83-17.2 123.02-47.94 34.21 30.74 77.67 47.94 123.05 47.94 100.43 0 179.1-82.88 179.1-188.68 0-121.23-94.3-212.34-237.08-350.27l-21.35-20.36c-11.9-11.3-27.44-17.52-43.72-17.52z m329.61 274.68c0-15.27 12.31-27.47 27.44-27.47h82.43c15.27 0 27.47 12.28 27.47 27.47 0 15.27-12.28 27.47-27.47 27.47h-82.43c-15.24-0.01-27.44-12.31-27.44-27.47zM594.4 123.06c0-15.27 12.31-27.47 27.44-27.47h247.24c15.27 0 27.47 12.28 27.47 27.47 0 15.27-12.28 27.47-27.47 27.47H621.84c-15.24-0.01-27.44-12.31-27.44-27.47z m164.81 494.42c0-15.27 12.31-27.47 27.44-27.47h82.43c15.27 0 27.47 12.28 27.47 27.47 0 15.27-12.28 27.47-27.47 27.47h-82.43c-15.24-0.01-27.44-12.31-27.44-27.47z"  horiz-adv-x="1024" />

    
    <glyph glyph-name="foot1" unicode="&#58892;" d="M362.66666666 810.66666667L234.66666666 810.66666667C164.26666666 810.66666667 106.66666666 753.06666667 106.66666666 682.66666667l0-128c0-70.4 57.6-128 128-128l128 0c70.4 0 128 57.6 128 128L490.66666666 682.66666667C490.66666666 753.06666667 433.06666666 810.66666667 362.66666666 810.66666667zM810.66666666 810.66666667l-128 0C612.26666666 810.66666667 554.66666666 753.06666667 554.66666666 682.66666667l0-128c0-70.4 57.6-128 128-128l128 0c70.4 0 128 57.6 128 128L938.66666666 682.66666667C938.66666666 753.06666667 881.06666666 810.66666667 810.66666666 810.66666667zM362.66666666 362.66666667000004L234.66666666 362.66666667000004c-70.4 0-128-57.6-128-128l0-128c0-70.4 57.6-128 128-128l128 0c70.4 0 128 57.6 128 128l0 128C490.66666666 305.06666667 433.06666666 362.66666667000004 362.66666666 362.66666667000004zM810.66666666 362.66666667000004l-128 0c-70.4 0-128-57.6-128-128l0-128c0-70.4 57.6-128 128-128l128 0c70.4 0 128 57.6 128 128l0 128C938.66666666 305.06666667 881.06666666 362.66666667000004 810.66666666 362.66666667000004z"  horiz-adv-x="1024" />

    
    <glyph glyph-name="shaixuan" unicode="&#58894;" d="M528.243316-115.554206l-131.717129 73.617947a99.012292 99.012292 0 0 0-52.32774 88.11068V464.411576a20.905445 20.905445 0 0 1-7.951764 15.903529L31.77106 724.511224l-3.334611 3.975882A97.216732 97.216732 0 0 0 9.326564 836.477196 97.729749 97.729749 0 0 0 100.771854 895.987175h820.82729A100.936106 100.936106 0 0 0 1014.070468 836.477196a98.371021 98.371021 0 0 0-17.827342-107.861836l-3.975882-3.975882-307.810234-246.889459a21.290208 21.290208 0 0 1-7.310493-15.903528v-488.648746a99.2688 99.2688 0 0 0-99.910072-100.679598 102.603411 102.603411 0 0 0-48.993129 11.927647zM756.66416 69.90146a39.758822 39.758822 0 0 0 0 79.517643h225.727505a39.887076 39.887076 0 0 0 39.758822-39.758821 39.374059 39.374059 0 0 0-39.758822-39.758822z m0 149.031455a39.758822 39.758822 0 0 0 0 79.389389h225.727505a39.887076 39.887076 0 0 0 39.758822-39.758822 38.476279 38.476279 0 0 0-39.758822-39.758822z m0 149.544471a39.758822 39.758822 0 0 0 0 79.38939h225.727505a39.887076 39.887076 0 0 0 39.758822-39.758822 38.476279 38.476279 0 0 0-39.758822-39.758822z"  horiz-adv-x="1024" />

    
    <glyph glyph-name="send" unicode="&#59142;" d="M682.695111-70.741333c-29.568 0-59.534222 14.307556-86.613333 41.415111L98.787556 467.953778c-34.474667 34.460444-48.156444 73.230222-38.528 109.169778 9.543111 35.640889 40.391111 62.122667 86.840889 74.581333L825.870222 833.137778c50.816 13.596444 96.071111 2.062222 120.917333-30.336 20.280889-26.424889 25.301333-63.857778 14.165333-105.400889L780.017778 19.171556C764.913778-37.134222 728.547556-70.741333 682.695111-70.741333zM867.171556 782.008889c-8.120889 0-17.066667-1.294222-26.581333-3.84L161.820444 596.736c-25.614222-6.855111-42.609778-19.384889-46.620444-34.346667-4.081778-15.246222 4.593778-35.015111 23.808-54.229333L636.302222 10.894222c15.957333-15.971556 32.426667-24.746667 46.392889-24.746667 26.680889 0 38.513778 33.393778 42.368 47.715556L905.998222 712.106667c6.456889 24.092444 4.920889 43.989333-4.352 56.064C892.871111 779.619556 878.051556 782.008889 867.171556 782.008889zM737.820444 241.322667c-1.194667 0-2.403556 0.156444-3.598222 0.455111-7.594667 1.991111-12.16 9.756444-10.183111 17.351111l1.464889 5.603556c1.991111 7.608889 9.813333 12.131556 17.351111 10.183111 7.594667-1.991111 12.16-9.756444 10.183111-17.351111l-1.464889-5.603556C749.909333 245.560889 744.135111 241.322667 737.820444 241.322667zM698.254222 88.888889c-1.180444 0-2.389333 0.142222-3.584 0.469333-7.608889 1.976889-12.16 9.728-10.197333 17.336889l30.321778 116.750222c1.976889 7.594667 9.756444 12.231111 17.336889 10.197333 7.608889-1.976889 12.16-9.742222 10.197333-17.336889L712.007111 99.555556C710.328889 93.141333 704.568889 88.888889 698.254222 88.888889zM372.309333 206.208c-7.281778 0-14.549333 2.773333-20.110222 8.334222-11.107556 11.107556-11.107556 29.112889 0 40.220444l191.075556 191.089778c11.107556 11.107556 29.112889 11.107556 40.220444 0s11.107556-29.112889 0-40.220444L392.419556 214.528C386.872889 208.981333 379.591111 206.208 372.309333 206.208z"  horiz-adv-x="1024" />

    
    <glyph glyph-name="qiehuan" unicode="&#59054;" d="M601.6 279.7c1.5 0 3-0.1 4.5-0.2h352.4l-337-343.1v0.3l-0.3-0.3V118.2H166.4v0.2h-23.3c-43.8 0-79.2 36.1-79.2 80.6 0 44.5 35.5 80.6 79.2 80.6l458.5 0.1zM400.3 649.9h454.9v-0.9H879c43.7 0 79.2-36.1 79.2-80.7 0-44.5-35.5-80.6-79.2-80.6H420.5c-3.9 0-7.7 0.4-11.5 1H63.2l0.4 0.5L400.3 831.8v-181.9z"  horiz-adv-x="1024" />

    
    <glyph glyph-name="fabu" unicode="&#58880;" d="M998.642273 880.212993c-10.600374 10.280173-24.496869 15.44737-38.389271 15.44737-13.893426 0-27.782759-5.167196-38.368811-15.44737l-40.138609-38.85883-18.039663-17.533276L846.658569 807.233889 721.00905 684.965401 541.470717 510.363065 348.539207 322.333793l0-76.133027 75.28291 0 192.937648 188.015972 88.518543 86.141081 197.980037 192.513101 2.922724 2.847022-0.027621 0 9.263307 8.984027 0 0 83.225518 80.834756C1019.859389 826.145153 1019.859389 859.595358 998.642273 880.212993zM953.637231 666.963588l-2.944207-2.867482L752.726285 471.583006l-88.483761-86.106299-192.938671-188.003696-19.814576-19.307166-27.66716 0-75.28291 0-68.036968 0 0 68.036968 0 76.121774 0 28.694256 20.549094 20.028384L494.037062 559.13481l179.524011 174.585968 99.895378 97.20283L70.835397 830.923607C36.326382 830.923607 8.356413 802.804279 8.356413 768.09271l0-833.240329c0-34.713616 27.969969-62.852381 62.477961-62.852381l859.009815 0c34.499808 0 62.467731 28.137742 62.467731 62.852381l0 769.688213-29.454349-28.605255L953.637231 666.963588z"  horiz-adv-x="1024" />

    
    <glyph glyph-name="ditu" unicode="&#58953;" d="M260.348 572.904q5.735-21.986 12.904-47.794t16.251-52.574 20.551-53.051 24.853-49.228v-376.618L95.936-65.626V531.801z m71.692 32.5q0 4.78-0.478 9.081t-0.478 9.081q0 43.015 16.728 80.294t45.404 65.478 66.912 44.449 82.206 16.251 82.206-16.251 66.912-44.449 45.404-65.478 16.728-80.294v-11.471q0-5.735-0.956-11.471-5.735-50.662-22.463-97.022t-42.537-89.375-59.265-82.684-71.692-75.992q-6.692-6.692-14.339-6.692t-14.339 6.692q-39.192 36.324-72.647 76.471t-59.265 84.118-42.537 91.287-21.508 97.978z m210.294 106.103q-19.118 0-35.368-6.692t-28.198-18.639-19.118-28.198-7.169-34.412 7.169-34.412 19.118-28.198 28.198-18.639 35.368-6.692 35.845 6.692 28.676 18.639 19.118 28.198 7.169 34.412-7.169 34.412-19.118 28.198-28.676 18.639-35.845 6.692zM394.172 292.829q27.721-30.588 54.008-55.441t47.316-43.971q24.853-21.986 46.839-39.192 11.471 9.559 25.809 21.986 12.427 10.515 28.676 26.765T634.1 239.3v-304.927l-239.927 59.265V292.83z m538.162 299.192v-598.382l-238.971-59.265V300.477q5.735 5.735 10.992 11.949t10.992 11.949q19.118 21.029 35.368 50.184t29.155 62.133 22.941 65.956 17.684 61.655z"  horiz-adv-x="1024" />

    
    <glyph glyph-name="back" unicode="&#58881;" d="M807.879111 799.004444L380.757333 384l427.008-415.004444a55.978667 55.978667 0 0 0 0-80.384 59.733333 59.733333 0 0 0-82.602666 0L256.739556 343.836444a55.978667 55.978667 0 0 0 0 80.327112L725.162667 879.388444a59.733333 59.733333 0 0 0 82.602666 0c22.755556-22.186667 22.755556-58.368 0.113778-80.384z"  horiz-adv-x="1024" />

    
    <glyph glyph-name="weixin-copy" unicode="&#58971;" d="M579.867 384.068c-11.67 0-23.344-10.837-23.344-24.178 0-10.839 11.668-21.678 23.344-21.678 17.514 0 30.020 10.839 30.020 21.678 0 13.34-12.505 24.178-30.020 24.178v0zM503.154 496.64c18.345 0 30.020 11.67 30.020 29.185 0 18.345-11.675 29.183-30.020 29.183-17.51 0-34.188-10.839-34.188-29.183-0.001-17.517 16.678-29.185 34.188-29.185v0zM512.326 895.44c-282.655 0-511.788-229.133-511.788-511.788 0-282.653 229.133-511.786 511.788-511.786 282.653 0 511.786 229.133 511.786 511.786 0.001 282.655-229.132 511.788-511.786 511.788v0zM415.602 253.991c-30.855 0-53.369 4.999-82.553 13.341l-84.218-42.53 24.186 71.715c-59.204 41.689-94.228 94.221-94.228 158.428 0 113.403 106.733 200.123 236.814 200.123 115.069 0 217.633-68.377 237.644-165.106-8.338 1.671-15.844 2.502-22.514 2.502-113.403 0-200.954-85.049-200.954-187.613 0-17.508 2.502-33.351 6.671-50.030-6.671-0.829-14.178-0.829-20.849-0.829v0zM763.314 172.276l16.674-60.041-63.371 35.854c-24.18-4.999-47.529-12.505-71.709-12.505-111.737 0-200.123 76.711-200.123 171.769 0 95.058 88.388 171.771 200.123 171.771 105.895 0 200.954-76.713 200.954-171.771 0-53.362-35.854-100.891-82.548-135.078v0zM338.053 555.008c-17.51 0-35.854-10.839-35.854-29.183 0-17.516 18.343-29.19 35.854-29.19 16.679 0 30.020 11.675 30.020 29.19 0 18.343-13.341 29.183-30.020 29.183v0zM710.783 384.068c-12.51 0-23.349-10.837-23.349-24.178 0-10.839 10.839-21.678 23.349-21.678 16.674 0 29.183 10.839 29.183 21.678 0 13.34-12.509 24.178-29.183 24.178v0zM710.783 384.068z"  horiz-adv-x="1024" />

    
    <glyph glyph-name="zhifubao" unicode="&#59730;" d="M233.6 320c-12.8-9.6-25.6-22.4-28.8-41.6-6.4-25.6 0-54.4 22.4-80 28.8-28.8 70.4-35.2 89.6-38.4 51.2-3.2 105.6 22.4 144 51.2 16 9.6 44.8 35.2 70.4 67.2-57.6 28.8-131.2 64-208 60.8-38.4 0-67.2-6.4-89.6-19.2zM976 185.6c25.6 60.8 41.6 128 41.6 198.4C1017.6 662.4 790.4 889.6 512 889.6S6.4 662.4 6.4 384s227.2-505.6 505.6-505.6c166.4 0 316.8 83.2 409.6 208-86.4 41.6-230.4 115.2-316.8 156.8-41.6-48-102.4-96-172.8-115.2-44.8-12.8-83.2-19.2-124.8-9.6s-70.4 28.8-89.6 48c-9.6 9.6-19.2 22.4-25.6 38.4v-3.2s-3.2 6.4-6.4 19.2c0 6.4-3.2 12.8-3.2 19.2v35.2c3.2 19.2 12.8 44.8 35.2 64 48 48 112 51.2 147.2 48 48 0 137.6-22.4 208-48 19.2 41.6 32 89.6 41.6 118.4H307.2v32H464v64H275.2v32H464v64c0 16 3.2 22.4 16 22.4h73.6v-83.2h204.8v-32H553.6v-64h163.2s-16-92.8-67.2-182.4C761.6 272 921.6 208 976 185.6z"  horiz-adv-x="1024" />

    


  </font>
</defs>
</svg>
